<svg width="23" height="20" viewBox="0 0 23 20" fill="none" xmlns="http://www.w3.org/2000/svg">
<path fill-rule="evenodd" clip-rule="evenodd" d="M21.7415 8.00005H16.8316L12.3318 1.43005C11.9218 0.840049 11.0301 0.840049 10.6303 1.43005L6.13052 8.00005H1.24121C0.677457 8.00005 0.216202 8.45005 0.216202 9.00005C0.216202 9.09005 0.226452 9.18005 0.257202 9.27005L2.86073 18.54C3.09649 19.38 3.88575 20 4.82876 20H18.1539C19.0969 20 19.8862 19.38 20.1322 18.54L22.7357 9.27005L22.7665 9.00005C22.7665 8.45005 22.3052 8.00005 21.7415 8.00005ZM11.4811 3.79005L14.3614 8.00005H8.6008L11.4811 3.79005ZM11.4913 16C10.3638 16 9.44131 15.1 9.44131 14C9.44131 12.9 10.3638 12 11.4913 12C12.6189 12 13.5414 12.9 13.5414 14C13.5414 15.1 12.6189 16 11.4913 16Z" fill="#18214D"/>
</svg>
