<svg width="942" height="58" viewBox="0 0 942 58" fill="none" xmlns="http://www.w3.org/2000/svg">
<g clip-path="url(#clip0_1_4456)">
<path fill-rule="evenodd" clip-rule="evenodd" d="M92.3733 48.1917C83.722 54.5925 71.1815 58 60.3817 58C45.2431 58 31.6153 52.3908 21.3017 43.049C20.4914 42.315 21.2128 41.3137 22.1903 41.8799C33.3195 48.3751 47.0832 52.2859 61.2965 52.2859C70.8835 52.2859 81.4272 50.2886 91.124 46.1629C92.5876 45.539 93.8109 47.1275 92.3838 48.1917H92.3733Z" fill="#18214D"/>
<path fill-rule="evenodd" clip-rule="evenodd" d="M95.975 44.0712C94.8668 42.6505 88.6619 43.3949 85.8704 43.7304C85.0236 43.8301 84.8929 43.0909 85.6561 42.5562C90.6065 39.07 98.7246 40.0766 99.6655 41.2404C100.617 42.4199 99.4146 50.5769 94.7779 54.4719C94.0618 55.0696 93.3874 54.7498 93.7011 53.9582C94.7466 51.3423 97.0832 45.4866 95.975 44.066V44.0712Z" fill="#18214D"/>
<path fill-rule="evenodd" clip-rule="evenodd" d="M86.0691 17.9173V14.5255C86.0691 14.0118 86.4611 13.6658 86.9263 13.6658H102.075C102.561 13.6658 102.948 14.017 102.948 14.5203V17.4245C102.948 17.912 102.535 18.5464 101.809 19.5581L93.9624 30.7924C96.8741 30.7243 99.9582 31.1594 102.603 32.6534C103.199 32.9889 103.361 33.4869 103.408 33.9745V37.5917C103.408 38.0897 102.865 38.6664 102.295 38.3675C97.6321 35.9194 91.4428 35.652 86.2886 38.399C85.7606 38.6821 85.2118 38.1107 85.2118 37.6126V34.1737C85.2118 33.6233 85.2222 32.6849 85.7763 31.8461L94.8668 18.7665H86.9525C86.4663 18.7665 86.0795 18.4205 86.0795 17.912L86.0691 17.9173Z" fill="#18214D"/>
<path fill-rule="evenodd" clip-rule="evenodd" d="M30.8103 39.0857H26.1997C25.7606 39.0595 25.4104 38.724 25.3738 38.3046V14.5832C25.3738 14.1061 25.7763 13.7287 26.2677 13.7287H30.5594C31.0089 13.7496 31.3696 14.0904 31.3957 14.5255V17.6237H31.4846C32.6085 14.6251 34.7151 13.2307 37.5536 13.2307C40.3921 13.2307 42.2426 14.6303 43.5337 17.6237C44.6524 14.6303 47.1877 13.2307 49.9007 13.2307C51.8348 13.2307 53.9467 14.0275 55.2326 15.8256C56.6963 17.8229 56.3931 20.7167 56.3931 23.2644V38.2312C56.3931 38.703 55.9906 39.0857 55.4992 39.0857H50.8939C50.4339 39.0543 50.068 38.6873 50.068 38.2365V25.6602C50.068 24.6641 50.1516 22.1636 49.9373 21.2199C49.5923 19.621 48.5625 19.1754 47.2295 19.1754C46.1108 19.1754 44.9504 19.9251 44.4747 21.1203C43.999 22.3208 44.046 24.3129 44.046 25.6602V38.2312C44.046 38.703 43.6487 39.0857 43.1574 39.0857H38.552C38.092 39.0543 37.7261 38.6873 37.7261 38.2365V25.6602C37.7261 23.0128 38.1495 19.123 34.8824 19.123C31.6153 19.123 31.6989 22.9184 31.6989 25.6602V38.2312C31.6989 38.703 31.3016 39.0857 30.8103 39.0857Z" fill="#18214D"/>
<path fill-rule="evenodd" clip-rule="evenodd" d="M115.985 13.2307C122.823 13.2307 126.524 19.123 126.524 26.609C126.524 34.0951 122.436 39.589 115.985 39.589C109.535 39.589 105.62 33.6966 105.62 26.3626C105.62 19.0286 109.315 13.2307 115.985 13.2307ZM116.027 18.0745C112.629 18.0745 112.415 22.714 112.415 25.613C112.415 28.512 112.373 34.6979 115.985 34.6979C119.598 34.6979 119.728 29.7072 119.728 26.6615C119.728 24.6641 119.645 22.2684 119.038 20.3707C118.521 18.7246 117.491 18.0745 116.027 18.0745Z" fill="#18214D"/>
<path fill-rule="evenodd" clip-rule="evenodd" d="M135.395 39.0857H130.805C130.345 39.0543 129.979 38.6873 129.979 38.2365V14.5045C130.01 14.0694 130.392 13.7287 130.857 13.7287H135.133C135.536 13.7496 135.865 14.0222 135.954 14.3944V18.0221H136.043C137.334 14.7771 139.138 13.2307 142.321 13.2307C144.386 13.2307 146.409 13.9803 147.7 16.0248C148.902 17.9225 148.902 21.1151 148.902 23.4112V38.3361C148.85 38.7555 148.474 39.0857 148.019 39.0857H143.398C142.969 39.0595 142.629 38.745 142.577 38.3361V25.461C142.577 22.866 142.88 19.0706 139.697 19.0706C138.578 19.0706 137.543 19.8202 137.031 20.9683C136.388 22.4152 136.299 23.8621 136.299 25.461V38.2312C136.289 38.703 135.891 39.0857 135.4 39.0857H135.395Z" fill="#18214D"/>
<path fill-rule="evenodd" clip-rule="evenodd" d="M73.9938 27.7571C73.9938 29.5604 74.0356 31.0597 73.1312 32.6586C72.3994 33.9587 71.2337 34.7608 69.9425 34.7608C68.1757 34.7608 67.1407 33.4083 67.1407 31.411C67.1407 27.474 70.6639 26.7611 73.9938 26.7611V27.7623V27.7571ZM78.6409 39.0228C78.3377 39.2954 77.8986 39.3164 77.5536 39.1329C76.022 37.859 75.7502 37.2666 74.9138 36.0557C72.3837 38.6401 70.5907 39.416 67.3132 39.416C63.4344 39.416 60.413 37.015 60.413 32.2131C60.413 28.4596 62.4412 25.9118 65.3267 24.6589C67.8254 23.558 71.3173 23.3588 73.9938 23.06V22.4624C73.9938 21.3615 74.0826 20.0614 73.4344 19.1125C72.8751 18.2633 71.7983 17.912 70.8469 17.912C69.0905 17.912 67.5275 18.8137 67.1407 20.6852C67.0622 21.0994 66.7591 21.5135 66.3409 21.5345L61.8767 21.0522C61.5003 20.9683 61.0821 20.6642 61.1867 20.0876C62.2112 14.6513 67.1093 13.0105 71.4898 13.0105C73.7324 13.0105 76.665 13.6081 78.4318 15.3118C80.6744 17.414 80.46 20.2134 80.46 23.2644V30.4621C80.46 32.6272 81.3592 33.5761 82.2008 34.7451C82.4935 35.1645 82.5615 35.6677 82.1851 35.9718C81.2442 36.7634 79.5714 38.2207 78.6514 39.0438L78.6409 39.0333V39.0228Z" fill="#18214D"/>
<path fill-rule="evenodd" clip-rule="evenodd" d="M13.5807 27.7571C13.5807 29.5605 13.6225 31.0598 12.7182 32.6587C11.9864 33.9588 10.8207 34.7608 9.5295 34.7608C7.76264 34.7608 6.72761 33.4083 6.72761 31.411C6.72761 27.474 10.2509 26.7611 13.5807 26.7611V27.7623V27.7571ZM18.2279 39.0228C17.9247 39.2954 17.4804 39.3164 17.1406 39.1329C15.609 37.859 15.3371 37.2667 14.5007 36.0557C11.9707 38.6401 10.1777 39.416 6.90535 39.416C3.02662 39.416 0.00518799 37.015 0.00518799 32.2131C0.00518799 28.4596 2.03342 25.9118 4.91894 24.6589C7.41763 23.558 10.9095 23.3588 13.586 23.06V22.4624C13.586 21.3615 13.6696 20.0614 13.0266 19.1125C12.4673 18.2633 11.3904 17.912 10.4391 17.912C8.68266 17.912 7.11967 18.8137 6.73284 20.6852C6.65443 21.0994 6.35124 21.5135 5.93305 21.5345L1.46886 21.0522C1.09249 20.9683 0.674294 20.6643 0.778842 20.0876C1.79818 14.6408 6.69102 13 11.0768 13C13.3194 13 16.2519 13.5976 18.0188 15.3014C20.2613 17.4035 20.047 20.2029 20.047 23.254V30.4517C20.047 32.6167 20.9461 33.5656 21.7877 34.7346C22.0805 35.154 22.1484 35.6573 21.7721 35.9613C20.8311 36.7529 19.1584 38.2103 18.2383 39.0333L18.2279 39.0228Z" fill="#18214D"/>
</g>
<g clip-path="url(#clip1_1_4456)">
<path d="M210.378 10.2603C202.132 10.2603 195.26 13.759 195.26 24.3145C195.26 32.6767 199.881 37.9428 210.591 37.9428C223.199 37.9428 224.007 29.638 224.007 29.638H217.898C217.898 29.638 216.588 34.1098 210.219 34.1098C205.031 34.1098 201.3 30.6053 201.3 25.6933H224.646V22.6109C224.646 17.7514 221.561 10.2603 210.378 10.2603ZM210.166 14.1997C215.104 14.1997 218.47 17.2249 218.47 21.7591H201.435C201.435 16.9455 205.829 14.1997 210.166 14.1997Z" fill="#18214D"/>
<path d="M224.641 0.039032V32.6419C224.641 34.4925 224.509 37.091 224.509 37.091H230.336C230.336 37.091 230.545 35.2247 230.545 33.5191C230.545 33.5191 233.424 38.0226 241.251 38.0226C249.493 38.0226 255.092 32.3002 255.092 24.1015C255.092 16.4745 249.949 10.3401 241.264 10.3401C233.131 10.3401 230.604 14.7321 230.604 14.7321V0.039032H224.641ZM239.76 14.3727C245.357 14.3727 248.917 18.5269 248.917 24.1015C248.917 30.0793 244.806 33.99 239.8 33.99C233.826 33.99 230.604 29.3256 230.604 24.1548C230.604 19.3366 233.495 14.3727 239.76 14.3727Z" fill="#18214D"/>
<path d="M269.572 10.2603C257.165 10.2603 256.37 17.0536 256.37 18.1391H262.545C262.545 18.1391 262.869 14.1731 269.146 14.1731C273.225 14.1731 276.386 16.0402 276.386 19.6297V20.9074H269.146C259.535 20.9074 254.453 23.7192 254.453 29.4251C254.453 35.0405 259.148 38.0958 265.493 38.0958C274.14 38.0958 276.925 33.3179 276.925 33.3179C276.925 35.2183 277.072 37.091 277.072 37.091H282.562C282.562 37.091 282.349 34.7698 282.349 33.2847V20.4482C282.349 12.0315 275.56 10.2603 269.572 10.2603ZM276.386 24.7403V26.4439C276.386 28.6658 275.015 34.1897 266.944 34.1897C262.524 34.1897 260.629 31.9838 260.629 29.4251C260.629 24.7703 267.01 24.7403 276.386 24.7403Z" fill="#18214D"/>
<path d="M279.023 11.326H285.971L295.941 31.3008L305.888 11.326H312.182L294.062 46.8874H287.461L292.69 36.9742L279.023 11.326Z" fill="#18214D"/>
</g>
<g clip-path="url(#clip2_1_4456)">
<path d="M462.586 26.7082C462.586 22.5205 460.8 18.839 454.757 18.839C451.661 18.839 449.2 19.7122 447.85 20.4862L448.833 23.8503C450.063 23.0762 452.018 22.4312 453.864 22.4312C456.93 22.4312 457.426 24.1678 457.426 25.2792V25.5472C450.748 25.5372 446.531 27.8494 446.531 32.563C446.531 35.4408 448.684 38.1399 452.415 38.1399C454.717 38.1399 456.632 37.227 457.783 35.7583H457.902C457.902 35.7583 458.666 38.9437 462.864 37.7331C462.645 36.4033 462.576 34.9843 462.576 33.2874L462.586 26.7082ZM457.595 31.1439C457.595 31.4813 457.565 31.8386 457.476 32.1462C457.089 33.4263 455.759 34.508 454.102 34.508C452.723 34.508 451.621 33.724 451.621 32.0668C451.621 29.5264 454.419 28.8318 457.595 28.8417V31.1439Z" fill="#18214D"/>
<path d="M358.544 13.1429C358.544 13.1429 362.91 31.0248 363.605 33.9324C364.418 37.3162 365.887 38.5666 370.104 37.7231L372.823 26.6387C373.518 23.88 373.974 21.9251 374.421 19.1168H374.5C374.808 21.9449 375.254 23.8899 375.82 26.6486C375.82 26.6486 376.931 31.6798 377.497 34.3293C378.062 36.9689 379.65 38.6361 383.788 37.733L390.278 13.1528H385.038L382.825 23.7808C382.23 26.8769 381.694 29.2882 381.268 32.1263H381.198C380.821 29.3279 380.335 27.0059 379.73 23.9892L377.418 13.1628H371.95L369.479 23.7212C368.775 26.9265 368.13 29.5165 367.713 32.2553H367.634C367.207 29.6852 366.641 26.4303 366.026 23.3243C366.026 23.3243 364.557 15.7726 364.041 13.1727" fill="#18214D"/>
<path d="M405.182 26.7082C405.182 22.5205 403.396 18.839 397.353 18.839C394.247 18.839 391.786 19.7122 390.446 20.4862L391.429 23.8503C392.659 23.0762 394.614 22.4312 396.46 22.4312C399.526 22.4312 400.022 24.1678 400.022 25.2792V25.5472C393.344 25.5372 389.127 27.8494 389.127 32.563C389.127 35.4408 391.28 38.1399 395.011 38.1399C397.313 38.1399 399.228 37.227 400.379 35.7583H400.488C400.488 35.7583 401.252 38.9437 405.46 37.7331C405.241 36.4033 405.162 34.9843 405.162 33.2874L405.182 26.7082ZM400.181 31.1439C400.181 31.4813 400.151 31.8386 400.062 32.1462C399.675 33.4263 398.355 34.508 396.698 34.508C395.318 34.508 394.217 33.724 394.217 32.0668C394.217 29.5264 397.005 28.8318 400.191 28.8417V31.1439H400.181Z" fill="#18214D"/>
<path d="M413.507 32.5034V13.1429H408.516V37.7231H413.507" fill="#18214D"/>
<path d="M478.8 13.1429V31.2828C478.8 33.7835 479.266 35.53 480.278 36.6018C481.152 37.5346 482.6 38.1399 484.337 38.1399C485.815 38.1399 487.264 37.862 487.949 37.604L487.879 33.7041C487.373 33.8331 486.788 33.9324 485.984 33.9324C484.287 33.9324 483.712 32.8408 483.712 30.5981V23.6617H488.058V18.958H483.712V13.1429" fill="#18214D"/>
<path d="M465.92 19.2657V37.733H471.07V28.2761C471.07 27.77 471.1 27.3234 471.179 26.9166C471.566 24.9319 473.074 23.6716 475.248 23.6716C475.843 23.6716 476.27 23.7312 476.726 23.8006V18.968C476.339 18.8886 476.081 18.8588 475.595 18.8588C473.67 18.8588 471.487 20.0992 470.574 22.7587H470.435V19.2756" fill="#18214D"/>
<path d="M417 19.2657V37.7331H422.021V26.9067C422.021 26.4006 422.081 25.8647 422.259 25.3983C422.676 24.3067 423.688 23.0266 425.306 23.0266C427.33 23.0266 428.272 24.7334 428.272 27.2143V37.7331H433.284V26.7777C433.284 26.2914 433.353 25.7059 433.492 25.2792C433.899 24.0388 435 23.0266 436.499 23.0266C438.553 23.0266 439.535 24.7136 439.535 27.6112V37.7231H444.546V26.8471C444.546 21.1114 441.629 18.839 438.344 18.839C436.886 18.839 435.734 19.2061 434.703 19.8412C433.829 20.3771 433.045 21.1412 432.361 22.1434H432.291C431.497 20.1488 429.632 18.839 427.201 18.839C424.075 18.839 422.676 20.4168 421.823 21.7664H421.743V19.2557" fill="#18214D"/>
<path d="M515.038 16.5466C516.031 16.5466 516.844 16.0306 516.954 15.3657L517.936 4.28134C517.936 3.18977 516.656 2.28674 515.038 2.28674C513.421 2.28674 512.151 3.18977 512.151 4.28134L513.133 15.3657C513.242 16.0306 514.056 16.5466 515.048 16.5466" fill="#18214D"/>
<path d="M509.055 20.0099C509.551 19.1565 509.511 18.184 508.985 17.7573L499.876 11.3666C498.934 10.8209 497.515 11.4758 496.701 12.875C495.897 14.2742 496.036 15.8322 496.979 16.3779L507.06 21.0717C507.695 21.3099 508.549 20.8534 509.045 20" fill="#18214D"/>
<path d="M521.032 20C521.528 20.8534 522.381 21.3099 523.016 21.0717L533.098 16.3779C534.051 15.8322 534.18 14.2742 533.376 12.875C532.572 11.4758 531.153 10.8209 530.201 11.3666L521.091 17.7573C520.565 18.184 520.536 19.1565 521.022 20.0099" fill="#18214D"/>
<path d="M515.038 30.3798C516.031 30.3798 516.844 30.8958 516.954 31.5607L517.936 42.6451C517.936 43.7367 516.656 44.6397 515.038 44.6397C513.421 44.6397 512.151 43.7367 512.151 42.6451L513.133 31.5607C513.242 30.8958 514.056 30.3798 515.048 30.3798" fill="#18214D"/>
<path d="M521.032 26.9265C521.528 26.0632 522.381 25.6166 523.016 25.8548L533.098 30.5485C534.051 31.0943 534.18 32.6523 533.376 34.0515C532.572 35.4408 531.153 36.1056 530.201 35.5598L521.091 29.1692C520.565 28.7425 520.536 27.77 521.022 26.9166" fill="#18214D"/>
<path d="M509.055 26.9265C509.551 27.7799 509.511 28.7524 508.985 29.1791L499.876 35.5598C498.934 36.1056 497.515 35.4507 496.701 34.0515C495.897 32.6523 496.036 31.0943 496.979 30.5386L507.06 25.8448C507.695 25.6067 508.549 26.0532 509.045 26.9166" fill="#18214D"/>
</g>
<g clip-path="url(#clip3_1_4456)">
<path d="M711.606 15.6744C709.339 12.5692 705.721 10.9265 701.927 10.9179C698.133 10.9265 694.515 12.5735 692.248 15.6744C690.683 17.8189 689.947 20.5252 689.947 23.163C689.947 25.8007 690.683 28.507 692.248 30.6515C694.515 33.7568 698.133 35.3994 701.927 35.408C705.721 35.3994 709.339 33.7525 711.606 30.6515C713.172 28.507 713.907 25.8007 713.907 23.163C713.907 20.5252 713.172 17.8189 711.606 15.6744ZM707.774 25.9722C706.897 28.6057 704.81 30.7073 701.927 30.7201C699.04 30.703 696.953 28.6014 696.08 25.9722C695.802 25.1359 695.614 24.1108 695.614 23.1587C695.614 22.2108 695.802 21.1815 696.08 20.3451C696.957 17.716 699.044 15.6101 701.927 15.5972C704.814 15.6144 706.897 17.716 707.774 20.3451C708.052 21.1857 708.24 22.2108 708.24 23.1587C708.24 24.1065 708.052 25.1359 707.774 25.9722ZM619.653 34.799C619.653 35.1807 619.341 35.4938 618.96 35.4938H614.94C614.555 35.4938 614.247 35.1807 614.247 34.799V1.65801C614.247 1.272 614.559 0.963196 614.94 0.963196H618.96C619.345 0.963196 619.653 1.27629 619.653 1.65801V34.799ZM610.205 34.799C610.205 35.1807 609.893 35.4938 609.512 35.4938H605.491C605.106 35.4938 604.799 35.1807 604.799 34.799V1.65801C604.799 1.272 605.111 0.963196 605.491 0.963196H609.512C609.897 0.963196 610.205 1.27629 610.205 1.65801V34.799ZM689.045 12.3419V15.1726C689.053 15.7988 688.642 16.0861 688.095 15.9746C683.548 15.0353 680.756 17.0597 680.756 21.2715L680.747 34.799C680.747 35.185 680.435 35.4938 680.054 35.4938H676.034C675.649 35.4938 675.341 35.1807 675.341 34.799V20.9112C675.341 17.2871 676.979 15.2112 678.3 13.8902C680.101 12.0931 682.727 10.9136 685.653 10.9136C686.089 10.9136 687.702 10.9823 688.441 11.1796C688.972 11.334 689.04 11.617 689.04 12.3376L689.045 12.3419ZM671.838 23.163C671.838 20.4952 671.128 17.8618 669.537 15.6744C667.27 12.5692 663.651 10.9265 659.858 10.9179C656.064 10.9265 652.445 12.5735 650.179 15.6744C647.082 19.9162 647.078 26.4011 650.179 30.6472C652.445 33.7525 656.064 35.3951 659.858 35.4037C662.343 35.3951 664.746 34.6875 666.752 33.3279V36.2873C666.752 40.306 663.245 41.0394 661.004 41.1767C659.498 41.271 657.355 41.0652 656.389 40.9194C655.773 40.825 655.345 40.9365 655.345 41.5799C655.345 41.567 655.332 45.1354 655.345 45.144C655.332 45.4056 655.542 45.6887 655.978 45.7273C661.179 46.1776 664.691 46.079 667.33 44.5779C669.207 43.5099 670.499 41.7428 671.175 39.6798C671.662 38.1958 671.833 36.3687 671.833 34.7818V23.1587L671.838 23.163ZM659.858 30.7244C656.971 30.7244 654.888 28.6057 654.011 25.9765C653.733 25.1402 653.545 24.1151 653.545 23.163C653.545 22.2151 653.733 21.1857 654.011 20.3494C654.888 17.7202 656.971 15.6015 659.858 15.6015C666.316 15.6015 666.534 22.2151 666.534 23.163C666.534 24.1108 666.316 30.7244 659.858 30.7244ZM601.124 20.7354C601.124 17.5358 600.41 15.0739 598.879 13.4313C597.288 11.7285 594.444 10.9222 591.595 10.9222C588.747 10.9222 586.009 11.6556 583.584 13.1053C583.426 13.1997 583.332 13.3669 583.332 13.5514C583.332 13.5642 583.332 13.5685 583.332 13.5814C583.332 13.5814 583.546 17.0983 583.546 17.1112C583.584 17.5873 583.96 17.7417 584.392 17.4758C588.114 15.1511 592.194 15.0182 594.05 15.9575C596.24 17.064 595.945 19.8562 595.945 19.8562H590.449C587.938 19.8562 580.231 20.7526 580.231 27.8937C580.231 27.9194 580.231 27.9409 580.231 27.9666C580.231 27.9795 580.231 27.9924 580.231 28.0095C580.231 30.4457 581.065 32.41 582.724 33.7096C584.26 34.9234 586.364 35.4981 588.965 35.4981H600.432C600.817 35.4981 601.124 35.185 601.124 34.799L601.116 20.7354H601.124ZM595.949 31.1319H589.315C588.387 31.0761 587.575 30.836 586.835 30.2612C586.035 29.6393 585.671 28.9102 585.663 27.9538C585.676 26.6928 586.514 24.1537 590.77 24.1537H595.949V31.1276V31.1319ZM634.46 10.9222C627.313 10.9222 624.217 15.7344 623.177 19.8004C622.899 20.8812 622.767 22.0435 622.767 23.1587C622.767 25.7921 623.502 28.5027 625.068 30.6472C627.335 33.7525 630.957 35.2622 634.747 35.4037C638.605 35.5495 641.188 34.8848 643.117 33.761C643.493 33.5423 643.575 33.2764 643.575 32.5773V29.4506C643.575 28.8073 643.194 28.5156 642.595 28.8973C640.517 30.2269 638.006 31.0418 634.815 30.7888C631.603 30.5357 628.947 28.2754 628.695 25.0801H644.567C644.918 25.0801 645.196 24.8142 645.217 24.4325C645.478 20.0792 644.233 10.9179 634.46 10.9179V10.9222ZM628.742 20.774C628.742 18.9941 630.222 15.6058 634.46 15.6058C636.8 15.6058 639.546 16.9482 639.546 20.774H628.737H628.742Z" fill="#18214D"/>
</g>
<path d="M835.555 12.7819C834.191 12.0318 832.162 11.6669 829.354 11.6658C825.51 11.6673 821.943 12.4642 820.593 12.9672C820.288 13.065 819.962 13.3281 819.956 13.7783L819.957 13.8776L820.335 15.7882L820.345 15.8237C820.463 16.2128 820.787 16.3872 821.082 16.3872H821.084C821.179 16.3831 821.253 16.3649 821.322 16.3473L821.961 16.198C823.635 15.779 826.166 15.1462 828.991 15.1462C830.705 15.1462 831.858 15.2956 832.63 15.6216C833.883 16.0959 833.891 16.9057 833.904 18.2462V20.2513C833.76 20.2488 833.518 20.2462 833.145 20.2462C831.761 20.2462 829.04 20.3105 826.363 20.7394C822.28 21.3663 818.9 22.3434 818.922 27.968C818.923 35.1081 825.548 35.1216 828.732 35.1282H828.733C830.894 35.1278 832.888 34.8087 834.19 34.5396C837.163 33.8496 837.921 32.9063 837.882 29.9541V18.0812C837.886 16.2704 837.891 14.0167 835.555 12.7819H835.555ZM833.923 31.1229C832.342 31.6361 830.611 31.8959 828.778 31.8959V32.0627L828.776 31.8959C825.847 31.8735 822.986 31.5386 822.983 27.804C823.001 24.8338 824.587 24.4803 826.594 24.0323L826.733 24.0014C828.518 23.62 833 23.5484 833.924 23.5377L833.924 31.1229H833.923ZM871 18.0812V29.9541C871.04 32.9063 870.281 33.8496 867.309 34.5396C866.007 34.8087 864.012 35.1277 861.851 35.1282H861.851C858.667 35.1216 852.042 35.1081 852.04 27.968C852.019 22.3434 855.398 21.3663 859.482 20.7394C862.158 20.3105 864.879 20.2462 866.263 20.2462C866.636 20.2462 866.879 20.2488 867.022 20.2513V18.2462C867.01 16.9057 867.002 16.0959 865.749 15.6216C864.976 15.2956 863.824 15.1462 862.11 15.1462C859.284 15.1462 856.754 15.779 855.08 16.198L854.44 16.3473C854.371 16.3649 854.297 16.3831 854.202 16.3872H854.201C853.906 16.3872 853.582 16.2128 853.463 15.8237L853.454 15.7882L853.076 13.8776L853.075 13.7783C853.08 13.3281 853.406 13.065 853.711 12.9672C855.061 12.4642 858.629 11.6674 862.472 11.6658C865.281 11.6669 867.309 12.0318 868.674 12.7819C871.01 14.0167 871.005 16.2704 871 18.0812H871ZM867.043 23.5377C866.118 23.5484 861.637 23.62 859.851 24.0014L859.712 24.0323C857.705 24.4803 856.12 24.8338 856.101 27.804C856.105 31.5386 858.965 31.8735 861.894 31.8959L861.896 32.0627V31.8959C863.73 31.8959 865.46 31.6361 867.042 31.1229L867.043 23.5377H867.043ZM930.992 11.6658C921.766 11.6783 920.983 17.7381 920.975 23.4181C920.983 29.0772 921.766 35.1157 930.992 35.1282H930.993C940.212 35.1157 940.998 29.0935 941.011 23.4173C941.001 17.4778 940.219 11.6783 930.992 11.6658H930.992ZM930.993 31.8131C925.397 31.7885 925.115 28.917 925.077 23.4191C925.115 17.891 925.396 15.0051 930.992 14.9807C936.589 15.0051 936.87 17.891 936.908 23.4166C936.87 28.917 936.589 31.7885 930.993 31.8131ZM914.434 34.2925L914.193 34.3534C912.903 34.6805 911.135 35.1282 908.037 35.1282H908.037H908.03C899.491 35.1157 897.815 30.8101 897.806 23.3767C897.816 14.8509 900.52 11.6773 907.782 11.6658C910.343 11.6658 912.108 11.997 913.375 12.3027L913.367 5.43561C913.356 5.13445 913.493 4.74009 914.206 4.60424L916.474 4.02603H916.597C917.118 4.03899 917.303 4.50317 917.304 4.89651V30.6988C917.339 32.3281 917.147 33.726 914.434 34.2925H914.434ZM913.369 15.6074C912.612 15.4149 910.498 14.9393 908.118 14.9393C903.746 14.9794 901.912 16.1665 901.866 23.4188C901.918 31.3822 904.29 31.8126 908.157 31.8545L908.159 32.0213V31.8545C910.566 31.8545 912.631 31.353 913.367 31.1501L913.369 15.6074ZM892.987 34.5903H890.959C890.415 34.5895 890.005 34.1792 890.004 33.6363V18.329C889.967 15.7397 889.193 15.0195 886.404 14.9807C883.248 14.9807 880.054 15.7722 879.001 16.0591V33.6358C879 34.1884 878.616 34.5896 878.088 34.5903H876.018C875.475 34.5895 875.064 34.1792 875.064 33.6363V16.4674C875.033 14.8783 875.183 13.7798 877.444 13.0482C879.609 12.3009 883.752 11.6674 886.489 11.6658C891.705 11.6724 893.934 13.5536 893.941 17.9565V33.6358C893.94 34.1792 893.53 34.5896 892.987 34.5903ZM847.043 35.004H847.045C848.211 34.9812 849.073 34.7508 849.41 34.372C849.53 34.2376 849.586 34.0825 849.571 33.9294C849.563 33.8034 849.563 33.8034 849.243 32.306L849.235 32.2702C849.166 31.8786 848.887 31.7006 848.656 31.7006C848.635 31.7006 848.614 31.7018 848.625 31.7034C848.625 31.7034 848.332 31.6892 848.043 31.6892H848.04C847.209 31.6628 846.521 31.5419 846.506 30.3263V4.89678C846.506 4.4727 846.25 4.03771 845.759 4.02603L845.614 4.02725L843.342 4.60926C842.955 4.64888 842.552 4.92389 842.569 5.43505V30.4093C842.574 33.3669 844.162 34.9986 847.041 35.004H847.043L847.043 35.004ZM814.956 34.5903H798.68C798.136 34.5895 797.726 34.1792 797.725 33.6363V31.6501C797.714 31.1633 797.87 30.9464 798.17 30.5749L811.125 15.5188H798.431C797.888 15.5175 797.477 15.1074 797.477 14.5647V13.1579C797.478 12.615 797.888 12.2049 798.431 12.2039H814.874C815.417 12.2049 815.827 12.615 815.828 13.1577V15.1851C815.836 15.5515 815.709 15.8623 815.416 16.1884L802.428 31.275H814.956C815.499 31.2766 815.91 31.6864 815.911 32.2293V33.6358C815.91 34.1792 815.499 34.5896 814.956 34.5903Z" fill="#231F20"/>
<path d="M765.11 9.69507C762.297 9.69507 760.851 17.3732 761.002 24.5819C760.997 24.5808 760.993 24.5829 760.989 24.5819C761.139 30.9091 762.539 36.9738 765.314 36.9738C775.962 36.9738 788.094 26.9358 788.094 23.3376C788.094 22.4374 787.177 20.7053 785.947 19.3382C785.946 19.3391 785.943 19.3372 785.941 19.3382C785.857 19.2411 785.769 19.1444 785.681 19.0461C781.887 14.8156 774.018 9.69507 765.11 9.69507Z" fill="url(#paint0_linear_1_4456)"/>
<path d="M760.999 24.5816C769 26.4597 777.541 24.3455 785.816 19.4156C785.858 19.3907 785.899 19.3658 785.941 19.3407C785.858 19.2437 785.772 19.1459 785.684 19.0477C781.891 14.8171 774.016 9.69559 765.109 9.69559C762.296 9.69559 760.849 17.373 760.999 24.5816ZM785.941 19.3407C785.943 19.3399 785.944 19.3389 785.946 19.3379L785.941 19.3407Z" fill="#18214D"/>
<path d="M760.991 24.5798C761.141 30.9071 762.542 36.974 765.316 36.974C775.965 36.974 788.096 26.9388 788.096 23.3406C788.096 22.4404 787.175 20.7051 785.946 19.3379C777.628 24.3249 769.036 26.4711 760.991 24.5798Z" fill="#18214D"/>
<defs>
<linearGradient id="paint0_linear_1_4456" x1="783.835" y1="39.4273" x2="765.255" y2="7.23323" gradientUnits="userSpaceOnUse">
<stop stop-color="#F47026"/>
<stop offset="0.375336" stop-color="#F47026"/>
<stop offset="0.949234" stop-color="#FBC195"/>
<stop offset="1" stop-color="#FBC195"/>
</linearGradient>
<clipPath id="clip0_1_4456">
<rect width="148.897" height="45" fill="white" transform="translate(0 13)"/>
</clipPath>
<clipPath id="clip1_1_4456">
<rect width="117" height="46.9264" fill="white" transform="translate(195.221)"/>
</clipPath>
<clipPath id="clip2_1_4456">
<rect width="175.368" height="42.3529" fill="white" transform="translate(358.544 2.28674)"/>
</clipPath>
<clipPath id="clip3_1_4456">
<rect width="133.676" height="45" fill="white" transform="translate(580.235 0.963196)"/>
</clipPath>
</defs>
</svg>