<svg width="134" height="33" viewBox="0 0 134 33" fill="none" xmlns="http://www.w3.org/2000/svg">
<g clip-path="url(#clip0_1_2099)">
<path d="M21.58 0H17.1962V19.7628H21.58V0Z" fill="#4F79BB"/>
<path d="M27.3619 19.1248C26.2354 18.5002 25.3939 17.6363 24.8238 16.5332C24.2538 15.4301 23.9824 14.1808 23.9824 12.772C23.9824 10.5526 24.6203 8.77164 25.9096 7.44261C27.199 6.11357 29.072 5.43576 31.515 5.43576C33.1301 5.43576 34.5009 5.76802 35.641 6.43254C36.7811 7.09706 37.6362 7.98751 38.2062 9.09061C38.7762 10.1937 39.0613 11.4031 39.0613 12.7189C39.0613 14.0346 38.7762 15.2573 38.2062 16.3604C37.6362 17.4768 36.7811 18.3673 35.641 19.0451C34.5009 19.7229 33.1301 20.0552 31.515 20.0552C29.8728 20.0552 28.4884 19.7495 27.3619 19.1116V19.1248ZM33.8902 15.9219C34.3788 15.2308 34.6231 14.1675 34.6231 12.7322C34.6231 11.2968 34.3788 10.2336 33.8902 9.54249C33.4016 8.85139 32.6144 8.50584 31.515 8.50584C30.4157 8.50584 29.6285 8.85139 29.1399 9.54249C28.6513 10.2336 28.407 11.2968 28.407 12.7322C28.407 14.1675 28.6513 15.2308 29.1399 15.9219C29.6285 16.613 30.4157 16.9585 31.515 16.9585C32.6144 16.9585 33.4016 16.613 33.8902 15.9219Z" fill="#4F79BB"/>
<path d="M43.7845 19.1116C42.658 18.4736 41.8165 17.6097 41.2736 16.5199C40.7307 15.4301 40.4592 14.1808 40.4592 12.772C40.4592 11.3633 40.7307 10.1937 41.2871 9.09061C41.8436 7.98751 42.7122 7.09706 43.8795 6.43254C45.0603 5.76802 46.5532 5.43576 48.3719 5.43576C49.0234 5.43576 49.7292 5.5155 50.4892 5.6617C51.2493 5.80789 51.86 6.00725 52.3351 6.23318L51.5071 9.19694C50.3806 8.75835 49.3356 8.53242 48.3855 8.53242C47.2726 8.53242 46.4175 8.89126 45.8203 9.60894C45.2231 10.3266 44.911 11.3766 44.911 12.7588C44.911 14.141 45.1824 15.1909 45.7117 15.9086C46.2546 16.6263 47.0147 16.9851 48.0055 16.9851C48.6841 16.9851 49.2948 16.8921 49.8513 16.6927C50.4078 16.4934 51.0321 16.201 51.7379 15.8023L52.9322 18.5135C52.3486 18.9521 51.6157 19.3242 50.7471 19.6299C49.8785 19.9223 48.9691 20.0685 48.0055 20.0685C46.3225 20.0685 44.9245 19.7495 43.7845 19.1248" fill="#4F79BB"/>
<path d="M68.2012 19.6166C67.6583 19.7362 67.1832 19.816 66.7761 19.8691C66.3689 19.9223 65.8803 19.9489 65.3238 19.9489C63.7087 19.9489 62.6501 19.4438 62.1479 18.4205C61.4421 18.9255 60.7364 19.3242 60.0306 19.5767C59.3248 19.8425 58.5512 19.9754 57.7097 19.9754C56.9497 19.9754 56.271 19.816 55.6603 19.5103C55.0495 19.1913 54.5881 18.7793 54.2488 18.2477C53.9095 17.7161 53.7466 17.1446 53.7466 16.5199C53.7466 15.47 54.018 14.6327 54.5609 14.0081C55.1038 13.3834 55.8367 12.8917 56.7732 12.5195C57.6961 12.1474 59.1077 11.6955 60.9807 11.1772L61.7407 10.9513V10.8582C61.7407 9.34315 61.0349 8.58559 59.6234 8.58559C58.9312 8.58559 58.1983 8.73179 57.3976 9.02418C56.5968 9.31657 55.701 9.79502 54.6695 10.4595L53.8416 7.49578C54.9817 6.85785 56.1489 6.35281 57.3297 5.99397C58.5105 5.63513 59.7727 5.44907 61.1028 5.44907C62.7179 5.44907 63.953 5.87436 64.8216 6.73823C65.6903 7.58882 66.1246 9.06405 66.1246 11.1373V15.8288C66.1246 16.1877 66.206 16.4535 66.3553 16.613C66.5046 16.7725 66.7489 16.8522 67.0882 16.8522C67.4275 16.8522 67.7261 16.8123 68.0519 16.7326L68.2012 19.6432V19.6166ZM58.4019 16.6529C58.5783 16.799 58.8634 16.8788 59.2434 16.8788C59.9492 16.8788 60.7771 16.5864 61.7407 15.9883V13.3701L61.3607 13.4897C60.0985 13.9283 59.2434 14.327 58.7955 14.6593C58.3476 14.9916 58.1305 15.4168 58.1305 15.9352C58.1305 16.2674 58.2119 16.5067 58.3883 16.6529" fill="#4F79BB"/>
<path d="M74.0509 0H69.667V19.7628H74.0509V0Z" fill="#4F79BB"/>
<path d="M77.8783 4.21305C77.3761 3.7213 77.1318 3.14982 77.1318 2.47201C77.1318 1.7942 77.3761 1.22271 77.8783 0.730971C78.3804 0.239227 78.964 0 79.6562 0C80.3484 0 80.932 0.239227 81.4342 0.730971C81.9364 1.22271 82.1807 1.7942 82.1807 2.47201C82.1807 3.14982 81.9364 3.7213 81.4342 4.21305C80.932 4.70479 80.3484 4.94402 79.6562 4.94402C78.964 4.94402 78.3804 4.70479 77.8783 4.21305ZM77.4575 5.72815H81.8414V19.7628H77.4575V5.72815Z" fill="#4F79BB"/>
<path d="M96.5538 16.7193V19.7628H83.8636V17.4104L91.247 8.77165H84.2437V5.72815H96.2959V8.08055L88.9126 16.7193H96.5538Z" fill="#4F79BB"/>
<path d="M102.906 16.1345C103.408 16.6927 104.181 16.9718 105.227 16.9718C106 16.9718 106.72 16.8389 107.385 16.5598C108.05 16.294 108.81 15.882 109.665 15.3371L110.846 18.0483C109.95 18.7527 109.068 19.271 108.199 19.5767C107.33 19.8957 106.326 20.0419 105.199 20.0419C103.53 20.0419 102.132 19.7229 101.019 19.085C99.8926 18.447 99.0511 17.5832 98.5082 16.4934C97.9654 15.4035 97.6939 14.1542 97.6939 12.7455C97.6939 10.526 98.3318 8.74506 99.6076 7.41603C100.883 6.08699 102.756 5.40918 105.213 5.40918C107.167 5.40918 108.647 5.9275 109.665 6.95086C110.683 7.97422 111.198 9.43616 111.212 11.3367C111.212 12.0809 111.103 12.7986 110.886 13.5163H102.037C102.118 14.6859 102.404 15.5497 102.919 16.1079L102.906 16.1345ZM106.95 10.7253C106.964 10.6323 106.977 10.4994 106.977 10.3266C106.964 9.64881 106.774 9.13048 106.421 8.78493C106.068 8.42609 105.579 8.25332 104.955 8.25332C103.476 8.25332 102.553 9.07732 102.186 10.7253H106.95Z" fill="#4F79BB"/>
<path d="M122.735 9.58236C121.866 9.58236 121.066 9.63552 120.346 9.72855C119.627 9.82158 118.84 10.0209 117.998 10.3266V19.7628H113.614V5.72815H116.872L117.523 7.38945C118.392 6.69835 119.26 6.2066 120.088 5.90092C120.916 5.59524 121.812 5.46234 122.735 5.46234V9.59565V9.58236Z" fill="#4F79BB"/>
<path d="M134 9.58236C133.131 9.58236 132.331 9.63552 131.611 9.72855C130.892 9.82158 130.105 10.0209 129.263 10.3266V19.7628H124.879V5.72815H128.137L128.788 7.38945C129.657 6.69835 130.525 6.2066 131.353 5.90092C132.181 5.59524 133.077 5.46234 134 5.46234V9.59565V9.58236Z" fill="#4F79BB"/>
<path d="M21.5801 33H14.8075C6.65046 33 0 26.4877 0 18.4869V0H4.54674V18.4869C4.54674 24.029 9.16135 28.5477 14.821 28.5477H21.5936V33H21.5801Z" fill="url(#paint0_linear_1_2099)"/>
</g>
<defs>
<linearGradient id="paint0_linear_1_2099" x1="-17.3726" y1="0.996777" x2="36.8315" y2="36.1836" gradientUnits="userSpaceOnUse">
<stop stop-color="#ECA926" stop-opacity="0.8"/>
<stop offset="0.34" stop-color="#D99E3B" stop-opacity="0.87"/>
<stop offset="0.68" stop-color="#D09747" stop-opacity="0.94"/>
<stop offset="1" stop-color="#CC964C"/>
</linearGradient>
<clipPath id="clip0_1_2099">
<rect width="134" height="33" fill="white"/>
</clipPath>
</defs>
</svg>