<svg width="22" height="16" viewBox="0 0 22 16" fill="none" xmlns="http://www.w3.org/2000/svg">
<path fill-rule="evenodd" clip-rule="evenodd" d="M19.1962 0H2.79597C1.66845 0 0.756191 0.9 0.756191 2L0.745941 14C0.745941 15.1 1.66845 16 2.79597 16H19.1962C20.3237 16 21.2462 15.1 21.2462 14V2C21.2462 0.9 20.3237 0 19.1962 0ZM18.7862 4.25L11.5393 8.67C11.2113 8.87 10.7808 8.87 10.4528 8.67L3.20597 4.25C2.94972 4.09 2.79597 3.82 2.79597 3.53C2.79597 2.86 3.54422 2.46 4.12848 2.81L10.9961 7L17.8636 2.81C18.4479 2.46 19.1962 2.86 19.1962 3.53C19.1962 3.82 19.0424 4.09 18.7862 4.25Z" fill="#18214D"/>
</svg>
