			<svg width="732" height="100" viewBox="0 0 732 100" fill="none" xmlns="http://www.w3.org/2000/svg">
<circle cx="50" cy="50" r="50" fill="#EFF2F6"/>
<g clip-path="url(#clip0_1_3580)">
<path d="M83.8794 45.6375C82.6863 44.0032 80.7819 43.1386 78.7852 43.1341C76.7885 43.1386 74.884 44.0054 73.6909 45.6375C72.867 46.7662 72.4798 48.1906 72.4798 49.5789C72.4798 50.9671 72.867 52.3915 73.6909 53.5202C74.884 55.1545 76.7885 56.0191 78.7852 56.0236C80.7819 56.0191 82.6863 55.1523 83.8794 53.5202C84.7033 52.3915 85.0905 50.9671 85.0905 49.5789C85.0905 48.1906 84.7033 46.7662 83.8794 45.6375ZM81.8624 51.0574C81.401 52.4435 80.3024 53.5496 78.7852 53.5563C77.2657 53.5473 76.1672 52.4412 75.7079 51.0574C75.5616 50.6173 75.4626 50.0777 75.4626 49.5766C75.4626 49.0777 75.5616 48.536 75.7079 48.0958C76.1694 46.712 77.2679 45.6037 78.7852 45.5969C80.3047 45.6059 81.401 46.712 81.8624 48.0958C82.0088 48.5382 82.1078 49.0777 82.1078 49.5766C82.1078 50.0755 82.0088 50.6173 81.8624 51.0574ZM35.4829 55.7031C35.4829 55.904 35.3186 56.0688 35.1183 56.0688H33.0022C32.7996 56.0688 32.6375 55.904 32.6375 55.7031V38.2605C32.6375 38.0573 32.8019 37.8948 33.0022 37.8948H35.1183C35.3209 37.8948 35.4829 38.0596 35.4829 38.2605V55.7031ZM30.5102 55.7031C30.5102 55.904 30.3459 56.0688 30.1456 56.0688H28.0295C27.8269 56.0688 27.6648 55.904 27.6648 55.7031V38.2605C27.6648 38.0573 27.8292 37.8948 28.0295 37.8948H30.1456C30.3482 37.8948 30.5102 38.0596 30.5102 38.2605V55.7031ZM72.0049 43.8835V45.3734C72.0094 45.703 71.7932 45.8542 71.5051 45.7955C69.1122 45.3012 67.6422 46.3666 67.6422 48.5834L67.6377 55.7031C67.6377 55.9062 67.4734 56.0688 67.273 56.0688H65.157C64.9544 56.0688 64.7923 55.904 64.7923 55.7031V48.3938C64.7923 46.4863 65.6545 45.3937 66.3501 44.6985C67.2978 43.7526 68.68 43.1318 70.2197 43.1318C70.4493 43.1318 71.298 43.168 71.6875 43.2718C71.9666 43.3531 72.0026 43.5021 72.0026 43.8813L72.0049 43.8835ZM62.9487 49.5789C62.9487 48.1748 62.575 46.7888 61.7376 45.6375C60.5445 44.0032 58.64 43.1386 56.6433 43.1341C54.6466 43.1386 52.7421 44.0054 51.5491 45.6375C49.9193 47.87 49.917 51.2832 51.5491 53.518C52.7421 55.1523 54.6466 56.0169 56.6433 56.0214C57.9512 56.0169 59.2163 55.6444 60.2721 54.9288V56.4864C60.2721 58.6015 58.4262 58.9875 57.2466 59.0598C56.4542 59.1094 55.3264 59.0011 54.8177 58.9243C54.4935 58.8747 54.2684 58.9334 54.2684 59.272C54.2684 59.2652 54.2616 61.1433 54.2684 61.1478C54.2616 61.2855 54.3719 61.4345 54.6016 61.4548C57.3389 61.6919 59.1871 61.6399 60.576 60.8499C61.5642 60.2878 62.2441 59.3577 62.5997 58.272C62.8564 57.4909 62.9464 56.5293 62.9464 55.694V49.5766L62.9487 49.5789ZM56.6433 53.5586C55.1238 53.5586 54.0275 52.4435 53.5661 51.0597C53.4197 50.6195 53.3207 50.08 53.3207 49.5789C53.3207 49.08 53.4197 48.5382 53.5661 48.098C54.0275 46.7143 55.1238 45.5991 56.6433 45.5991C60.0425 45.5991 60.1573 49.08 60.1573 49.5789C60.1573 50.0777 60.0425 53.5586 56.6433 53.5586ZM25.7311 48.3012C25.7311 46.6172 25.3552 45.3215 24.5493 44.4569C23.7119 43.5607 22.2149 43.1364 20.7157 43.1364C19.2164 43.1364 17.7757 43.5224 16.4994 44.2854C16.4161 44.335 16.3665 44.4231 16.3665 44.5201C16.3665 44.5269 16.3665 44.5292 16.3665 44.5359C16.3665 44.5359 16.4791 46.387 16.4791 46.3937C16.4994 46.6443 16.6975 46.7256 16.9248 46.5856C18.8833 45.3621 21.0308 45.2921 22.0078 45.7865C23.1604 46.3689 23.0051 47.8384 23.0051 47.8384H20.1124C18.791 47.8384 14.7345 48.3102 14.7345 52.0687C14.7345 52.0823 14.7345 52.0936 14.7345 52.1071C14.7345 52.1139 14.7345 52.1207 14.7345 52.1297C14.7345 53.4119 15.1735 54.4457 16.0469 55.1297C16.855 55.7685 17.9626 56.071 19.3313 56.071H25.3665C25.5691 56.071 25.7311 55.9062 25.7311 55.7031L25.7266 48.3012H25.7311ZM23.0073 53.773H19.5158C19.0274 53.7437 18.5996 53.6173 18.2102 53.3148C17.7892 52.9875 17.5979 52.6037 17.5934 52.1003C17.6002 51.4367 18.0414 50.1003 20.2812 50.1003H23.0073V53.7708V53.773ZM43.2763 43.1364C39.5147 43.1364 37.8849 45.6691 37.3378 47.8091C37.1915 48.3779 37.1217 48.9897 37.1217 49.5766C37.1217 50.9626 37.5089 52.3893 38.3328 53.518C39.5259 55.1523 41.4326 55.9469 43.4271 56.0214C45.4576 56.0981 46.8172 55.7482 47.8325 55.1568C48.0306 55.0417 48.0734 54.9017 48.0734 54.5338V52.8882C48.0734 52.5495 47.873 52.396 47.5579 52.597C46.4638 53.2967 45.1424 53.7256 43.4631 53.5924C41.7725 53.4593 40.3746 52.2696 40.2418 50.5879H48.5956C48.7802 50.5879 48.9265 50.4479 48.9378 50.247C49.0751 47.9558 48.42 43.1341 43.2763 43.1341V43.1364ZM40.2665 48.3215C40.2665 47.3847 41.0454 45.6014 43.2763 45.6014C44.5076 45.6014 45.9528 46.308 45.9528 48.3215H40.2643H40.2665Z" fill="#18214D"/>
</g>
<circle cx="208" cy="50" r="50" fill="#EFF2F6"/>
<g clip-path="url(#clip1_1_3580)">
<path d="M201.211 46.3711C200.611 46.044 199.72 45.8848 198.485 45.8844C196.796 45.885 195.228 46.2325 194.634 46.4519C194.5 46.4945 194.357 46.6093 194.354 46.8056L194.355 46.8489L194.521 47.6821L194.525 47.6976C194.577 47.8672 194.72 47.9433 194.849 47.9433H194.85C194.892 47.9416 194.924 47.9336 194.955 47.9259L195.236 47.8608C195.972 47.6781 197.084 47.4021 198.326 47.4021C199.079 47.4021 199.586 47.4673 199.925 47.6094C200.476 47.8163 200.48 48.1694 200.485 48.754V49.6284C200.422 49.6273 200.316 49.6262 200.152 49.6262C199.543 49.6262 198.347 49.6542 197.171 49.8413C195.376 50.1147 193.89 50.5408 193.9 52.9936C193.9 56.1073 196.812 56.1132 198.212 56.1161H198.212C199.162 56.1159 200.039 55.9768 200.611 55.8594C201.918 55.5585 202.251 55.1471 202.234 53.8597V48.6821C202.236 47.8924 202.238 46.9096 201.211 46.3711H201.211ZM200.494 54.3694C199.799 54.5932 199.038 54.7065 198.232 54.7065V54.7793L198.231 54.7065C196.944 54.6968 195.686 54.5507 195.685 52.9221C195.693 51.6268 196.39 51.4726 197.272 51.2773L197.333 51.2638C198.118 51.0975 200.088 51.0662 200.494 51.0616L200.494 54.3694H200.494ZM216.791 48.6821V53.8597C216.809 55.1471 216.475 55.5585 215.169 55.8594C214.596 55.9768 213.72 56.1159 212.77 56.1161H212.77C211.37 56.1132 208.458 56.1073 208.457 52.9936C208.448 50.5408 209.933 50.1147 211.728 49.8413C212.905 49.6542 214.101 49.6262 214.709 49.6262C214.873 49.6262 214.98 49.6273 215.043 49.6284V48.754C215.037 48.1694 215.034 47.8163 214.483 47.6094C214.143 47.4673 213.637 47.4021 212.883 47.4021C211.641 47.4021 210.529 47.6781 209.793 47.8608L209.512 47.9259C209.482 47.9336 209.449 47.9416 209.408 47.9433H209.407C209.277 47.9433 209.135 47.8672 209.083 47.6976L209.079 47.6821L208.912 46.8489L208.912 46.8056C208.914 46.6093 209.058 46.4945 209.192 46.4519C209.785 46.2325 211.353 45.885 213.043 45.8844C214.277 45.8848 215.169 46.044 215.769 46.3711C216.795 46.9096 216.793 47.8924 216.791 48.6821H216.791ZM215.052 51.0616C214.645 51.0662 212.675 51.0975 211.891 51.2638L211.83 51.2773C210.947 51.4726 210.251 51.6268 210.242 52.9221C210.244 54.5507 211.501 54.6968 212.789 54.7065L212.79 54.7793V54.7065C213.595 54.7065 214.356 54.5932 215.051 54.3694L215.052 51.0616H215.052ZM243.161 45.8844C239.106 45.8898 238.762 48.5324 238.758 51.0094C238.762 53.4773 239.106 56.1106 243.161 56.1161H243.162C247.214 56.1106 247.56 53.4844 247.565 51.0091C247.561 48.4189 247.217 45.8898 243.161 45.8844H243.161ZM243.162 54.6704C240.702 54.6597 240.578 53.4074 240.561 51.0099C240.578 48.5991 240.702 47.3406 243.161 47.3299C245.622 47.3406 245.745 48.5991 245.762 51.0088C245.745 53.4074 245.621 54.6597 243.162 54.6704ZM235.883 55.7516L235.777 55.7782C235.21 55.9208 234.433 56.1161 233.071 56.1161H233.071H233.068C229.315 56.1106 228.578 54.233 228.574 50.9914C228.579 47.2734 229.767 45.8894 232.959 45.8844C234.085 45.8844 234.861 46.0288 235.417 46.1621L235.414 43.1674C235.409 43.0361 235.469 42.8641 235.783 42.8049L236.78 42.5527H236.834C237.063 42.5584 237.144 42.7608 237.145 42.9323V54.1845C237.16 54.895 237.076 55.5046 235.883 55.7516H235.883ZM235.415 47.6032C235.082 47.5193 234.153 47.3119 233.107 47.3119C231.185 47.3294 230.379 47.8471 230.359 51.0098C230.381 54.4825 231.424 54.6702 233.124 54.6884L233.125 54.7612V54.6884C234.183 54.6884 235.09 54.4697 235.414 54.3813L235.415 47.6032ZM226.456 55.8815H225.564C225.325 55.8812 225.145 55.7022 225.145 55.4655V48.7901C225.128 47.6609 224.788 47.3469 223.562 47.3299C222.175 47.3299 220.771 47.6751 220.308 47.8002V55.4653C220.307 55.7062 220.139 55.8812 219.907 55.8815H218.997C218.758 55.8812 218.578 55.7022 218.577 55.4655V47.9783C218.564 47.2853 218.63 46.8063 219.624 46.4872C220.575 46.1613 222.397 45.885 223.6 45.8844C225.892 45.8873 226.872 46.7076 226.875 48.6277V55.4653C226.875 55.7023 226.694 55.8812 226.456 55.8815ZM206.261 56.0619H206.262C206.774 56.052 207.153 55.9515 207.301 55.7863C207.354 55.7277 207.378 55.6601 207.372 55.5933C207.368 55.5384 207.368 55.5384 207.228 54.8853L207.224 54.8697C207.194 54.699 207.071 54.6213 206.97 54.6213C206.96 54.6213 206.951 54.6219 206.956 54.6226C206.956 54.6226 206.827 54.6164 206.7 54.6164H206.699C206.334 54.6048 206.031 54.5521 206.025 54.022V42.9325C206.024 42.7475 205.912 42.5578 205.696 42.5527L205.632 42.5533L204.634 42.8071C204.464 42.8244 204.287 42.9443 204.294 43.1672V54.0582C204.296 55.348 204.994 56.0596 206.26 56.0619H206.261L206.261 56.0619ZM192.157 55.8815H185.002C184.763 55.8812 184.583 55.7022 184.582 55.4655V54.5993C184.577 54.387 184.646 54.2925 184.778 54.1304L190.473 47.5646H184.893C184.654 47.5641 184.474 47.3852 184.473 47.1486V46.5351C184.474 46.2983 184.654 46.1195 184.893 46.119H192.12C192.359 46.1195 192.539 46.2983 192.54 46.535V47.4191C192.543 47.5789 192.487 47.7144 192.359 47.8566L186.65 54.4357H192.157C192.395 54.4365 192.576 54.6151 192.576 54.8519V55.4653C192.576 55.7023 192.395 55.8812 192.157 55.8815Z" fill="#231F20"/>
<path d="M170.246 45.0249C169.01 45.0249 168.374 48.3733 168.44 51.5169C168.438 51.5164 168.436 51.5173 168.435 51.5169C168.501 54.2761 169.116 56.9209 170.336 56.9209C175.016 56.9209 180.349 52.5434 180.349 50.9743C180.349 50.5817 179.946 49.8264 179.405 49.2302C179.405 49.2306 179.403 49.2297 179.403 49.2302C179.366 49.1879 179.327 49.1457 179.288 49.1028C177.621 47.2579 174.162 45.0249 170.246 45.0249Z" fill="url(#paint0_linear_1_3580)"/>
<path d="M168.439 51.5168C171.956 52.3358 175.71 51.4138 179.348 49.264C179.366 49.2531 179.384 49.2422 179.403 49.2313C179.366 49.189 179.328 49.1464 179.29 49.1035C177.622 47.2586 174.161 45.0251 170.246 45.0251C169.009 45.0251 168.373 48.3732 168.439 51.5168ZM179.403 49.2313C179.403 49.2309 179.404 49.2305 179.405 49.2301L179.403 49.2313Z" fill="#18214D"/>
<path d="M168.436 51.5159C168.502 54.2752 169.117 56.9209 170.337 56.9209C175.017 56.9209 180.35 52.5447 180.35 50.9755C180.35 50.583 179.945 49.8262 179.405 49.23C175.749 51.4048 171.972 52.3407 168.436 51.5159Z" fill="#18214D"/>
</g>
<circle cx="366" cy="50" r="50" fill="#EFF2F6"/>
<g clip-path="url(#clip2_1_3580)">
<path fill-rule="evenodd" clip-rule="evenodd" d="M375.67 61.1534C371.117 64.5223 364.517 66.3157 358.832 66.3157C350.865 66.3157 343.692 63.3635 338.264 58.4467C337.838 58.0605 338.217 57.5335 338.732 57.8315C344.589 61.25 351.833 63.3083 359.314 63.3083C364.36 63.3083 369.909 62.2571 375.013 60.0857C375.783 59.7573 376.427 60.5933 375.676 61.1534H375.67Z" fill="#18214D"/>
<path fill-rule="evenodd" clip-rule="evenodd" d="M377.566 58.9848C376.982 58.2371 373.717 58.6289 372.248 58.8054C371.802 58.8579 371.733 58.4688 372.135 58.1874C374.74 56.3526 379.013 56.8823 379.508 57.4949C380.009 58.1157 379.376 62.4088 376.936 64.4589C376.559 64.7734 376.204 64.6051 376.369 64.1885C376.919 62.8117 378.149 59.7298 377.566 58.982V58.9848Z" fill="#18214D"/>
<path fill-rule="evenodd" clip-rule="evenodd" d="M372.352 45.2196V43.4344C372.352 43.164 372.558 42.9819 372.803 42.9819H380.776C381.032 42.9819 381.236 43.1668 381.236 43.4317V44.9602C381.236 45.2168 381.019 45.5507 380.636 46.0832L376.507 51.996C378.039 51.9601 379.662 52.1891 381.054 52.9754C381.368 53.152 381.453 53.4141 381.478 53.6707V55.5745C381.478 55.8366 381.192 56.1401 380.892 55.9829C378.438 54.6944 375.18 54.5536 372.468 55.9994C372.19 56.1484 371.901 55.8477 371.901 55.5856V53.7756C371.901 53.4859 371.906 52.992 372.198 52.5505L376.982 45.6665H372.817C372.561 45.6665 372.358 45.4844 372.358 45.2168L372.352 45.2196Z" fill="#18214D"/>
<path fill-rule="evenodd" clip-rule="evenodd" d="M343.269 56.3609H340.842C340.611 56.3471 340.427 56.1705 340.407 55.9498V43.4648C340.407 43.2137 340.619 43.015 340.878 43.015H343.136C343.373 43.0261 343.563 43.2054 343.577 43.4344V45.0651H343.623C344.215 43.4869 345.324 42.7529 346.818 42.7529C348.312 42.7529 349.286 43.4896 349.965 45.0651C350.554 43.4896 351.888 42.7529 353.316 42.7529C354.334 42.7529 355.446 43.1723 356.122 44.1187C356.893 45.1699 356.733 46.6929 356.733 48.0339V55.9111C356.733 56.1595 356.521 56.3609 356.263 56.3609H353.839C353.597 56.3443 353.404 56.1512 353.404 55.9139V49.2948C353.404 48.7706 353.448 47.4545 353.335 46.9578C353.154 46.1163 352.612 45.8818 351.91 45.8818C351.321 45.8818 350.711 46.2763 350.46 46.9054C350.21 47.5372 350.235 48.5857 350.235 49.2948V55.9111C350.235 56.1595 350.026 56.3609 349.767 56.3609H347.343C347.101 56.3443 346.908 56.1512 346.908 55.9139V49.2948C346.908 47.9014 347.131 45.8542 345.412 45.8542C343.692 45.8542 343.736 47.8518 343.736 49.2948V55.9111C343.736 56.1595 343.527 56.3609 343.269 56.3609Z" fill="#18214D"/>
<path fill-rule="evenodd" clip-rule="evenodd" d="M388.098 42.7529C391.696 42.7529 393.644 45.8542 393.644 49.7942C393.644 53.7342 391.493 56.6257 388.098 56.6257C384.703 56.6257 382.642 53.5245 382.642 49.6645C382.642 45.8045 384.587 42.7529 388.098 42.7529ZM388.12 45.3023C386.331 45.3023 386.218 47.7442 386.218 49.27C386.218 50.7957 386.196 54.0515 388.098 54.0515C389.999 54.0515 390.067 51.4248 390.067 49.8218C390.067 48.7706 390.023 47.5096 389.704 46.5108C389.432 45.6445 388.89 45.3023 388.12 45.3023Z" fill="#18214D"/>
<path fill-rule="evenodd" clip-rule="evenodd" d="M398.313 56.3609H395.897C395.655 56.3443 395.463 56.1512 395.463 55.9139V43.4234C395.479 43.1944 395.68 43.015 395.925 43.015H398.175C398.387 43.0261 398.561 43.1696 398.607 43.3655V45.2748H398.654C399.334 43.5669 400.283 42.7529 401.958 42.7529C403.045 42.7529 404.11 43.1475 404.789 44.2235C405.422 45.2223 405.422 46.9026 405.422 48.1111V55.9663C405.395 56.187 405.197 56.3609 404.957 56.3609H402.525C402.3 56.3471 402.121 56.1815 402.093 55.9663V49.1899C402.093 47.8242 402.253 45.8266 400.577 45.8266C399.989 45.8266 399.444 46.2211 399.174 46.8254C398.836 47.5869 398.789 48.3484 398.789 49.1899V55.9111C398.783 56.1595 398.574 56.3609 398.316 56.3609H398.313Z" fill="#18214D"/>
<path fill-rule="evenodd" clip-rule="evenodd" d="M365.997 50.3986C365.997 51.3477 366.019 52.1368 365.543 52.9784C365.158 53.6626 364.544 54.0848 363.864 54.0848C362.935 54.0848 362.39 53.3729 362.39 52.3217C362.39 50.2496 364.244 49.8744 365.997 49.8744V50.4013V50.3986ZM368.443 56.3279C368.283 56.4714 368.052 56.4824 367.87 56.3859C367.064 55.7154 366.921 55.4036 366.481 54.7663C365.149 56.1265 364.206 56.5349 362.481 56.5349C360.439 56.5349 358.849 55.2712 358.849 52.7438C358.849 50.7683 359.916 49.4274 361.435 48.768C362.75 48.1885 364.588 48.0837 365.997 47.9264V47.6119C365.997 47.0325 366.043 46.3482 365.702 45.8488C365.408 45.4018 364.841 45.217 364.34 45.217C363.416 45.217 362.593 45.6915 362.39 46.6765C362.349 46.8945 362.189 47.1125 361.969 47.1235L359.619 46.8697C359.421 46.8255 359.201 46.6655 359.256 46.362C359.795 43.5008 362.373 42.6372 364.679 42.6372C365.859 42.6372 367.403 42.9517 368.333 43.8485C369.513 44.9549 369.4 46.4282 369.4 48.034V51.8223C369.4 52.9618 369.873 53.4612 370.316 54.0765C370.47 54.2972 370.506 54.5621 370.308 54.7221C369.813 55.1387 368.932 55.9058 368.448 56.339L368.443 56.3334V56.3279Z" fill="#18214D"/>
<path fill-rule="evenodd" clip-rule="evenodd" d="M334.201 50.3985C334.201 51.3476 334.223 52.1367 333.747 52.9783C333.362 53.6625 332.748 54.0847 332.068 54.0847C331.139 54.0847 330.594 53.3728 330.594 52.3216C330.594 50.2495 332.448 49.8743 334.201 49.8743V50.4012V50.3985ZM336.647 56.3278C336.487 56.4713 336.253 56.4823 336.074 56.3858C335.268 55.7153 335.125 55.4035 334.685 54.7662C333.353 56.1264 332.41 56.5348 330.687 56.5348C328.646 56.5348 327.056 55.2711 327.056 52.7437C327.056 50.7682 328.123 49.4273 329.642 48.7679C330.957 48.1884 332.795 48.0836 334.203 47.9263V47.6118C334.203 47.0324 334.247 46.3481 333.909 45.8487C333.615 45.4017 333.048 45.2169 332.547 45.2169C331.623 45.2169 330.8 45.6914 330.597 46.6764C330.555 46.8944 330.396 47.1124 330.176 47.1234L327.826 46.8696C327.628 46.8254 327.408 46.6654 327.463 46.3619C327.999 43.4952 330.575 42.6316 332.883 42.6316C334.063 42.6316 335.607 42.9461 336.536 43.8428C337.717 44.9492 337.604 46.4226 337.604 48.0284V51.8167C337.604 52.9562 338.077 53.4556 338.52 54.0709C338.674 54.2916 338.71 54.5565 338.512 54.7165C338.017 55.1331 337.136 55.9002 336.652 56.3333L336.647 56.3278Z" fill="#18214D"/>
</g>
<circle cx="524" cy="50" r="50" fill="#EFF2F6"/>
<g clip-path="url(#clip3_1_3580)">
<path d="M532.069 51.5324C532.069 49.5549 531.217 47.8164 528.333 47.8164C526.856 47.8164 525.681 48.2288 525.037 48.5943L525.506 50.1829C526.093 49.8173 527.026 49.5128 527.907 49.5128C529.37 49.5128 529.607 50.3328 529.607 50.8576V50.9842C526.42 50.9795 524.408 52.0713 524.408 54.2972C524.408 55.6561 525.435 56.9307 527.216 56.9307C528.314 56.9307 529.228 56.4996 529.777 55.8061H529.834C529.834 55.8061 530.199 57.3103 532.202 56.7386C532.097 56.1107 532.064 55.4406 532.064 54.6393L532.069 51.5324ZM529.687 53.6271C529.687 53.7864 529.673 53.9551 529.63 54.1004C529.446 54.7049 528.811 55.2157 528.02 55.2157C527.362 55.2157 526.837 54.8455 526.837 54.0629C526.837 52.8633 528.172 52.5352 529.687 52.5399V53.6271Z" fill="#18214D"/>
<path d="M482.421 45.1265C482.421 45.1265 484.505 53.5707 484.836 54.9437C485.224 56.5416 485.925 57.1321 487.937 56.7338L489.235 51.4995C489.566 50.1968 489.784 49.2736 489.997 47.9475H490.035C490.182 49.283 490.395 50.2014 490.665 51.5042C490.665 51.5042 491.195 53.88 491.465 55.1312C491.735 56.3776 492.493 57.1649 494.467 56.7385L497.564 45.1312H495.064L494.008 50.1499C493.724 51.6119 493.468 52.7506 493.265 54.0909H493.231C493.051 52.7694 492.819 51.6729 492.531 50.2483L491.427 45.1358H488.818L487.639 50.1218C487.303 51.6354 486.995 52.8584 486.796 54.1518H486.758C486.555 52.9381 486.285 51.4011 485.991 49.9343C485.991 49.9343 485.291 46.3683 485.044 45.1405" fill="#18214D"/>
<path d="M504.676 51.5324C504.676 49.5549 503.824 47.8164 500.94 47.8164C499.458 47.8164 498.284 48.2288 497.645 48.5943L498.113 50.1829C498.7 49.8173 499.633 49.5128 500.514 49.5128C501.977 49.5128 502.214 50.3328 502.214 50.8576V50.9842C499.027 50.9795 497.015 52.0713 497.015 54.2972C497.015 55.6561 498.042 56.9307 499.823 56.9307C500.921 56.9307 501.835 56.4996 502.384 55.8061H502.437C502.437 55.8061 502.801 57.3103 504.809 56.7386C504.705 56.1107 504.667 55.4406 504.667 54.6393L504.676 51.5324ZM502.29 53.6271C502.29 53.7864 502.276 53.9551 502.233 54.1004C502.048 54.7049 501.418 55.2157 500.628 55.2157C499.97 55.2157 499.444 54.8455 499.444 54.0629C499.444 52.8633 500.774 52.5352 502.294 52.5399V53.6271H502.29Z" fill="#18214D"/>
<path d="M508.649 54.2689V45.1265H506.267V56.7338H508.649" fill="#18214D"/>
<path d="M539.806 45.1265V53.6925C539.806 54.8734 540.029 55.6982 540.512 56.2043C540.929 56.6447 541.62 56.9306 542.448 56.9306C543.154 56.9306 543.845 56.7994 544.172 56.6775L544.139 54.8359C543.897 54.8969 543.618 54.9437 543.235 54.9437C542.425 54.9437 542.15 54.4282 542.15 53.3692V50.0937H544.224V47.8725H542.15V45.1265" fill="#18214D"/>
<path d="M533.66 48.0178V56.7385H536.118V52.2727C536.118 52.0337 536.132 51.8229 536.17 51.6307C536.354 50.6935 537.074 50.0984 538.111 50.0984C538.395 50.0984 538.599 50.1265 538.817 50.1593V47.8772C538.632 47.8397 538.509 47.8257 538.277 47.8257C537.358 47.8257 536.316 48.4114 535.881 49.6673H535.815V48.0225" fill="#18214D"/>
<path d="M510.316 48.0179V56.7386H512.712V51.6262C512.712 51.3872 512.74 51.1341 512.825 50.9139C513.024 50.3984 513.507 49.7939 514.279 49.7939C515.245 49.7939 515.695 50.5999 515.695 51.7714V56.7386H518.086V51.5652C518.086 51.3356 518.119 51.0591 518.186 50.8576C518.38 50.2719 518.905 49.7939 519.62 49.7939C520.601 49.7939 521.069 50.5905 521.069 51.9589V56.7339H523.461V51.598C523.461 48.8895 522.068 47.8164 520.501 47.8164C519.805 47.8164 519.256 47.9898 518.763 48.2897C518.347 48.5427 517.973 48.9036 517.646 49.3769H517.613C517.234 48.435 516.344 47.8164 515.184 47.8164C513.692 47.8164 513.024 48.5615 512.617 49.1988H512.579V48.0132" fill="#18214D"/>
<path d="M557.099 46.7338C557.573 46.7338 557.961 46.4902 558.013 46.1762L558.482 40.9419C558.482 40.4264 557.871 40 557.099 40C556.327 40 555.721 40.4264 555.721 40.9419L556.19 46.1762C556.242 46.4902 556.63 46.7338 557.104 46.7338" fill="#18214D"/>
<path d="M554.244 48.3694C554.48 47.9664 554.462 47.5071 554.211 47.3056L549.864 44.2878C549.414 44.0301 548.737 44.3394 548.348 45.0001C547.965 45.6608 548.031 46.3966 548.481 46.6543L553.292 48.8708C553.595 48.9832 554.002 48.7677 554.239 48.3647" fill="#18214D"/>
<path d="M559.959 48.3647C560.196 48.7677 560.603 48.9832 560.906 48.8708L565.717 46.6543C566.172 46.3966 566.233 45.6608 565.85 45.0001C565.466 44.3394 564.789 44.0301 564.334 44.2878L559.987 47.3056C559.736 47.5071 559.722 47.9664 559.954 48.3694" fill="#18214D"/>
<path d="M557.099 53.2661C557.573 53.2661 557.961 53.5098 558.013 53.8238L558.482 59.0581C558.482 59.5735 557.871 59.9999 557.099 59.9999C556.327 59.9999 555.721 59.5735 555.721 59.0581L556.19 53.8238C556.242 53.5098 556.63 53.2661 557.104 53.2661" fill="#18214D"/>
<path d="M559.959 51.6355C560.196 51.2278 560.603 51.0169 560.906 51.1294L565.717 53.3459C566.172 53.6036 566.233 54.3393 565.85 55.0001C565.466 55.6561 564.789 55.9701 564.334 55.7123L559.987 52.6945C559.736 52.493 559.722 52.0338 559.954 51.6308" fill="#18214D"/>
<path d="M554.244 51.6355C554.48 52.0385 554.462 52.4978 554.211 52.6993L549.864 55.7124C549.414 55.9701 548.737 55.6608 548.348 55.0001C547.965 54.3394 548.031 53.6037 548.481 53.3413L553.292 51.1248C553.595 51.0123 554.002 51.2232 554.239 51.6309" fill="#18214D"/>
</g>
<circle cx="682" cy="50" r="50" fill="#EFF2F6"/>
<g clip-path="url(#clip4_1_3580)">
<path d="M658.925 43.2949C654.585 43.2949 650.968 45.1364 650.968 50.6919C650.968 55.0931 653.4 57.8647 659.037 57.8647C665.673 57.8647 666.098 53.4937 666.098 53.4937H662.883C662.883 53.4937 662.194 55.8473 658.841 55.8473C656.111 55.8473 654.147 54.0029 654.147 51.4176H666.434V49.7953C666.434 47.2376 664.811 43.2949 658.925 43.2949ZM658.813 45.3683C661.412 45.3683 663.184 46.9605 663.184 49.347H654.218C654.218 46.8135 656.531 45.3683 658.813 45.3683Z" fill="#18214D"/>
<path d="M666.432 37.9153V55.0747C666.432 56.0487 666.362 57.4163 666.362 57.4163H669.429C669.429 57.4163 669.539 56.4341 669.539 55.5364C669.539 55.5364 671.054 57.9067 675.174 57.9067C679.512 57.9067 682.459 54.8948 682.459 50.5798C682.459 46.5655 679.752 43.3369 675.181 43.3369C670.9 43.3369 669.57 45.6485 669.57 45.6485V37.9153H666.432ZM674.389 45.4593C677.335 45.4593 679.209 47.6457 679.209 50.5798C679.209 53.726 677.045 55.7842 674.41 55.7842C671.266 55.7842 669.57 53.3293 669.57 50.6078C669.57 48.0719 671.092 45.4593 674.389 45.4593Z" fill="#18214D"/>
<path d="M690.08 43.2949C683.55 43.2949 683.131 46.8704 683.131 47.4417H686.381C686.381 47.4417 686.552 45.3543 689.856 45.3543C692.003 45.3543 693.666 46.337 693.666 48.2262V48.8987H689.856C684.797 48.8987 682.122 50.3786 682.122 53.3817C682.122 56.3372 684.594 57.9452 687.933 57.9452C692.484 57.9452 693.95 55.4305 693.95 55.4305C693.95 56.4307 694.027 57.4164 694.027 57.4164H696.916C696.916 57.4164 696.804 56.1947 696.804 55.413V48.657C696.804 44.2272 693.231 43.2949 690.08 43.2949ZM693.666 50.916V51.8126C693.666 52.982 692.945 55.8893 688.696 55.8893C686.37 55.8893 685.373 54.7283 685.373 53.3817C685.373 50.9318 688.732 50.916 693.666 50.916Z" fill="#18214D"/>
<path d="M695.054 43.856H698.711L703.958 54.369L709.194 43.856H712.506L702.969 62.5725H699.495L702.247 57.355L695.054 43.856Z" fill="#18214D"/>
</g>
<defs>
<linearGradient id="paint0_linear_1_3580" x1="178.477" y1="57.9908" x2="170.406" y2="43.8959" gradientUnits="userSpaceOnUse">
<stop stop-color="#F47026"/>
<stop offset="0.375336" stop-color="#F47026"/>
<stop offset="0.949234" stop-color="#FBC195"/>
<stop offset="1" stop-color="#FBC195"/>
</linearGradient>
<clipPath id="clip0_1_3580">
<rect width="70.356" height="23.6842" fill="white" transform="translate(14.7368 37.8948)"/>
</clipPath>
<clipPath id="clip1_1_3580">
<rect width="80" height="15.2632" fill="white" transform="translate(168 42.1052)"/>
</clipPath>
<clipPath id="clip2_1_3580">
<rect width="78.3669" height="23.6842" fill="white" transform="translate(327.053 42.6316)"/>
</clipPath>
<clipPath id="clip3_1_3580">
<rect width="83.6842" height="20" fill="white" transform="translate(482.421 40)"/>
</clipPath>
<clipPath id="clip4_1_3580">
<rect width="61.5789" height="24.6981" fill="white" transform="translate(650.947 37.8948)"/>
</clipPath>
</defs>
</svg>