<svg width="22" height="20" viewBox="0 0 22 20" fill="none" xmlns="http://www.w3.org/2000/svg">
			<path fill-rule="evenodd" clip-rule="evenodd" d="M10.0285 1.17995V18.82C10.0285 19.46 9.42165 19.94 8.78393 19.8C4.18622 18.8 0.771362 14.79 0.771362 9.99995C0.771362 5.20995 4.18622 1.19995 8.78393 0.199954C9.42165 0.0599543 10.0285 0.539954 10.0285 1.17995ZM12.1165 1.17995V7.98995C12.1165 8.53995 12.5794 8.98995 13.1451 8.98995H20.1291C20.7874 8.98995 21.2811 8.39995 21.1371 7.76995C20.2628 4.00995 17.2285 1.04995 13.3714 0.199954C12.7234 0.0599543 12.1165 0.539954 12.1165 1.17995ZM12.1165 12.01V18.82C12.1165 19.46 12.7234 19.94 13.3714 19.8C17.2388 18.95 20.2731 15.98 21.1474 12.22C21.2914 11.6 20.7874 11 20.1394 11H13.1554C12.5794 11.01 12.1165 11.46 12.1165 12.01Z" fill="#18214D"/>
			</svg>