<svg width="23" height="21" viewBox="0 0 23 21" fill="none" xmlns="http://www.w3.org/2000/svg">
<path fill-rule="evenodd" clip-rule="evenodd" d="M19.7087 10H18.1712V6C18.1712 4.9 17.2486 4 16.1211 4H12.0211V2.5C12.0211 1.12 10.8731 0 9.45855 0C8.04403 0 6.89602 1.12 6.89602 2.5V4H2.79597C1.66845 4 0.756191 4.9 0.756191 6V9.8H2.28346C3.81073 9.8 5.05099 11.01 5.05099 12.5C5.05099 13.99 3.81073 15.2 2.28346 15.2H0.745941V19C0.745941 20.1 1.66845 21 2.79597 21H6.69101V19.5C6.69101 18.01 7.93128 16.8 9.45855 16.8C10.9858 16.8 12.2261 18.01 12.2261 19.5V21H16.1211C17.2486 21 18.1712 20.1 18.1712 19V15H19.7087C21.1232 15 22.2712 13.88 22.2712 12.5C22.2712 11.12 21.1232 10 19.7087 10Z" fill="#18214D"/>
</svg>
