<svg width="603" height="517" viewBox="0 0 603 517" fill="none" xmlns="http://www.w3.org/2000/svg">
<path d="M362.719 148.519L365.881 302.45C386.039 299.683 405.275 302.231 424.906 308.774C447.04 316.153 453.892 331.655 463.905 346.719L563.027 349.881V168.721C563.027 157.566 553.98 148.519 542.825 148.519H362.719Z" fill="#FFDF57"/>
<path d="M530.352 189.626H476.597C475.411 189.626 474.489 188.704 474.489 187.518C474.489 186.332 475.411 185.41 476.597 185.41H530.352C531.538 185.41 532.46 186.332 532.46 187.518C532.46 188.704 531.538 189.626 530.352 189.626Z" fill="white"/>
<path d="M530.352 235.52H490.299C489.114 235.52 488.191 234.597 488.191 233.412C488.191 232.226 489.114 231.304 490.299 231.304H530.352C531.538 231.304 532.46 232.226 532.46 233.412C532.46 234.597 531.538 235.52 530.352 235.52Z" fill="white"/>
<path d="M530.352 281.37H466.013C464.827 281.37 463.905 280.448 463.905 279.262C463.905 278.076 464.827 277.154 466.013 277.154H530.352C531.538 277.154 532.46 278.076 532.46 279.262C532.46 280.448 531.538 281.37 530.352 281.37Z" fill="white"/>
<path d="M563.027 349.925H602.07L553.014 300.869L563.027 349.925Z" fill="#FFDF57"/>
<path d="M76.9465 355.195C84.514 355.195 90.6488 349.061 90.6488 341.493C90.6488 333.926 84.514 327.791 76.9465 327.791C69.3789 327.791 63.2442 333.926 63.2442 341.493C63.2442 349.061 69.3789 355.195 76.9465 355.195Z" fill="#F76567"/>
<path d="M546.163 134.817C552.566 134.817 557.757 129.626 557.757 123.223C557.757 116.819 552.566 111.628 546.163 111.628C539.759 111.628 534.568 116.819 534.568 123.223C534.568 129.626 539.759 134.817 546.163 134.817Z" fill="#FF98E1"/>
<path d="M293.987 23.0463L287.4 32.5326C285.819 34.8163 289.64 36.9243 291.177 34.6406L297.72 25.1544C299.302 22.9146 295.525 20.8065 293.987 23.0463Z" fill="#F76567"/>
<path d="M56.3052 321.423C54.1093 317.558 51.9134 313.693 49.7614 309.829C48.4 307.457 44.6231 309.565 45.9845 311.937C48.1804 315.801 50.3763 319.666 52.5283 323.531C53.8897 325.946 57.6666 323.838 56.3052 321.423Z" fill="#F76567"/>
<path d="M566.365 438.068C563.466 440.527 560.524 442.987 557.625 445.446C555.517 447.247 558.591 450.189 560.699 448.433C563.598 445.973 566.54 443.514 569.439 441.054C571.547 439.254 568.473 436.267 566.365 438.068Z" fill="#F76567"/>
<path d="M454.594 284.532C452.267 279.042 446.909 275.661 443.22 271.181C435.007 261.212 437.247 248.739 440.409 237.321C444.318 223.223 448.314 209.828 442.385 195.643C434.436 176.626 408.832 168.106 394.559 183.434C394.164 183.653 393.856 184.005 393.681 184.4C392.714 185.542 391.836 186.771 391.002 188.177C389.596 190.504 393.241 192.612 394.647 190.285C395.13 189.45 395.701 188.66 396.272 187.957C421.261 197.883 406.9 230.469 402.201 248.651C398.907 261.344 397.984 275.178 406.109 286.245C413.531 296.346 429.913 306.271 442.868 303.68C451.828 301.923 458.371 293.491 454.594 284.532Z" fill="#201000"/>
<path d="M327.145 168.589C313.531 150.715 324.071 126.472 343.043 134.905C362.016 143.337 401.19 168.194 402.684 193.754C404.177 219.27 407.339 248.783 378.88 252.999C350.466 257.215 327.145 168.589 327.145 168.589Z" fill="#201000"/>
<path d="M372.249 301.836C372.249 301.836 371.897 289.187 369.262 258.445C380.813 254.361 389.64 236.223 389.64 236.223C409.974 239.429 431.406 232.182 429.473 210.75C428.068 195.555 413.663 192.305 402.771 193.71C398.292 194.281 394.383 195.643 392.231 197.268C392.231 197.268 396.008 181.545 372.995 168.721C353.188 157.654 338.256 157.347 327.189 168.589C323.149 172.674 319.635 178.339 316.605 185.542C307.382 207.369 296.535 229.547 298.994 241.449C301.41 253.219 311.95 259.279 323.764 262.661L326.882 304.602C329.209 310.092 352.178 330.953 372.249 301.836Z" fill="white"/>
<path d="M348.709 319.095C347.874 319.095 347.128 319.051 346.381 318.963C335.665 317.909 326.706 309.565 324.949 305.393C324.862 305.173 324.818 304.954 324.774 304.734L321.743 264.242C307.207 259.806 299.082 252.472 296.886 241.888C294.646 230.996 302.42 213.078 310.632 194.062C311.95 190.987 313.311 187.869 314.629 184.751C317.835 177.153 321.436 171.4 325.652 167.14C337.246 155.326 353.057 155.239 373.961 166.921C391.177 176.495 394.208 187.738 394.515 193.666C396.755 192.744 399.522 192.042 402.464 191.646C406.592 191.119 416.913 190.548 424.423 196.565C428.595 199.903 431.01 204.646 431.538 210.575C432.284 218.7 429.869 225.595 424.555 230.601C417.22 237.496 404.66 240.395 390.826 238.55C388.542 242.81 381.164 255.459 371.502 259.85C374.005 289.187 374.401 301.704 374.401 301.836C374.401 302.275 374.269 302.714 374.049 303.109C365.046 315.977 355.648 319.095 348.709 319.095ZM328.946 304.031C330.351 306.623 337.466 313.825 346.776 314.791C355.34 315.626 363.158 311.102 370.141 301.221C370.009 298.19 369.438 285.059 367.154 258.621C367.066 257.654 367.637 256.776 368.56 256.469C379.144 252.736 387.664 235.476 387.752 235.3C388.147 234.466 389.069 233.983 389.991 234.159C402.991 236.223 415.156 233.675 421.7 227.527C426.092 223.399 428.024 217.865 427.365 210.97C426.926 206.227 425.038 202.494 421.788 199.859C417.44 196.389 410.413 194.852 402.991 195.818C399.038 196.345 395.349 197.531 393.417 198.98C392.714 199.508 391.748 199.551 391.002 199.024C390.255 198.541 389.904 197.619 390.123 196.785C390.255 196.214 393.11 182.38 371.897 170.566C352.618 159.806 338.871 159.63 328.638 170.083C324.862 173.904 321.436 179.393 318.494 186.376C317.176 189.494 315.815 192.612 314.497 195.731C306.899 213.298 299.038 231.48 301.014 241.054C302.903 250.276 310.544 256.688 324.335 260.641C325.169 260.904 325.784 261.651 325.872 262.529L328.946 304.031Z" fill="#201000"/>
<path d="M324.335 219.183C323.456 219.183 322.666 218.656 322.358 217.777C317.923 205.173 325.828 194.852 340.891 181.37C341.77 180.579 343.087 180.667 343.878 181.545C344.668 182.424 344.581 183.741 343.702 184.532C327.672 198.893 323.149 207.237 326.355 216.416C326.75 217.514 326.179 218.7 325.081 219.095C324.818 219.139 324.554 219.183 324.335 219.183Z" fill="#201000"/>
<path d="M363.921 194.268C364.075 192.82 363.027 191.523 361.58 191.369C360.132 191.215 358.835 192.263 358.681 193.711C358.527 195.158 359.575 196.456 361.023 196.609C362.47 196.763 363.768 195.715 363.921 194.268Z" fill="#201000"/>
<path d="M329.983 183.757C330.137 182.31 329.088 181.012 327.641 180.859C326.194 180.705 324.896 181.753 324.742 183.2C324.589 184.647 325.637 185.945 327.084 186.099C328.531 186.253 329.829 185.205 329.983 183.757Z" fill="#201000"/>
<path d="M341.989 236.662C347.084 238.594 352.442 235.608 353.232 230.162C353.628 227.483 357.844 227.922 357.405 230.601C356.175 238.726 348.138 243.513 340.408 240.571C337.905 239.604 339.442 235.696 341.989 236.662Z" fill="#201000"/>
<path d="M361.972 179.92C362.675 178.954 363.948 178.866 364.914 179.481C365.925 180.096 366.891 180.755 367.901 181.369C368.867 181.984 368.999 183.434 368.34 184.312C367.637 185.278 366.364 185.366 365.398 184.751C364.387 184.136 363.421 183.478 362.411 182.863C361.445 182.248 361.313 180.755 361.972 179.92Z" fill="#201000"/>
<path d="M333.25 168.194L335.885 168.458C338.564 168.765 338.125 172.937 335.446 172.63L332.811 172.366C330.088 172.103 330.527 167.931 333.25 168.194Z" fill="#201000"/>
<path d="M393.11 220.676C392.714 220.676 392.319 220.588 391.968 220.324C391.002 219.71 390.694 218.392 391.309 217.426C394.339 212.727 405.582 205.436 414.234 208.115C415.332 208.467 415.947 209.652 415.595 210.75C415.244 211.848 414.058 212.463 412.96 212.112C406.285 210.048 396.886 216.504 394.866 219.666C394.471 220.324 393.812 220.676 393.11 220.676Z" fill="#201000"/>
<path d="M395.569 185.542C393.241 179.832 388.893 175.397 383.492 172.498C383.316 172.41 383.184 172.41 383.009 172.366C383.052 171.839 383.096 171.312 383.14 170.785C383.448 168.106 379.232 168.106 378.924 170.785C378.09 177.812 379.276 184.927 382.701 191.163C384.765 194.94 389.069 200.562 393.988 197.707C398.292 195.204 397.106 189.275 395.569 185.542Z" fill="#201000"/>
<path d="M274.137 449.048C273.039 449.048 272.116 448.169 272.029 447.071L267.856 376.144C259.249 366.834 167.373 266.833 150.025 238.243L143.394 227.264C127.276 200.781 107.206 167.799 68.2947 101.088C67.7238 100.078 68.0312 98.8044 69.0413 98.1896C70.0514 97.6186 71.325 97.9261 71.9398 98.9362C110.851 165.647 130.877 198.585 146.995 225.068L153.627 236.003C171.238 264.989 270.448 372.719 271.458 373.773C271.809 374.124 271.985 374.607 272.029 375.09L276.245 446.808C276.333 447.95 275.41 448.96 274.268 449.048C274.225 449.048 274.181 449.048 274.137 449.048Z" fill="#201000"/>
<path d="M219.327 319.008C218.581 319.008 217.878 318.612 217.483 317.91C216.912 316.9 217.263 315.626 218.273 315.055C242.999 301.177 254.066 278.867 253.056 270.742C252.924 269.6 253.715 268.546 254.901 268.371C256.087 268.239 257.097 269.029 257.272 270.215C258.37 278.999 248.401 303.022 220.381 318.7C220.03 318.92 219.679 319.008 219.327 319.008Z" fill="#201000"/>
<path d="M77.8248 86.2879C77.4735 86.2879 77.166 86.2879 76.8147 86.244C68.5143 85.5413 58.1936 75.3963 55.9099 60.2887C55.7342 59.1468 56.5248 58.0489 57.6666 57.8732C58.8524 57.7414 59.9064 58.488 60.0821 59.6299C61.9705 72.3221 70.4467 81.457 77.1661 82.0279C81.47 82.4231 83.4902 79.0415 84.4564 76.1429C84.8077 75.045 85.9935 74.4301 87.1354 74.8254C88.2333 75.1767 88.8481 76.4064 88.4529 77.5044C86.5644 83.1258 82.7436 86.2879 77.8248 86.2879Z" fill="#201000"/>
<path d="M74.3553 93.8417C68.7338 93.8417 62.4097 90.504 58.3254 85.1899C53.714 79.1732 52.8796 71.7511 56.0417 64.9C56.5247 63.846 57.7544 63.3629 58.8524 63.8459C59.9064 64.329 60.3895 65.6027 59.9064 66.6567C56.5247 74.0348 59.599 79.832 61.707 82.6427C65.3522 87.3858 71.325 90.2844 75.8485 89.5378C78.5275 89.0986 80.3281 87.4297 81.2943 84.619C81.6456 83.521 82.8314 82.9062 83.9733 83.3015C85.0712 83.6528 85.6861 84.8825 85.2908 85.9804C83.8854 90.2405 80.7673 93.0073 76.5512 93.7099C75.8485 93.7978 75.1019 93.8417 74.3553 93.8417Z" fill="#201000"/>
<path d="M69.9196 101.176C65.3522 101.176 60.3895 98.5849 57.0078 94.3688C53.2748 89.7135 52.3526 84.1799 54.4606 79.1733C54.8998 78.1193 56.1734 77.5922 57.2274 78.0314C58.2815 78.4706 58.8085 79.7003 58.3693 80.7983C56.8761 84.3117 57.5788 88.3082 60.3017 91.7337C63.2002 95.3789 67.6798 97.487 71.1493 96.8282C73.6966 96.389 75.4972 94.5445 76.5512 91.4263C76.9025 90.3284 78.0883 89.7135 79.2302 90.1088C80.3281 90.4601 80.943 91.6898 80.5477 92.7878C79.0106 97.3552 75.9364 100.298 71.8959 101C71.2372 101.132 70.5784 101.176 69.9196 101.176Z" fill="#201000"/>
<path d="M328.946 304.734C328.858 305.832 327.936 306.667 326.838 306.667C326.794 306.667 326.75 306.667 326.706 306.667C323.676 306.447 320.865 306.271 318.274 306.096C286.741 304.032 283.447 303.812 242.999 257.435C211.159 220.939 164.65 144.742 139.661 103.767C130.746 89.1426 124.29 78.6024 121.655 74.8694C113.398 63.2751 92.5372 52.1639 83.5341 52.6031C82.7436 52.647 81.3821 52.8227 80.943 53.5693C79.4937 56.1165 85.8617 60.5522 91.4832 64.4609C97.0168 68.3256 102.726 72.2782 105.229 76.8017C105.8 77.8118 105.405 79.0855 104.395 79.6564C103.385 80.2273 102.111 79.876 101.54 78.822C100.794 77.4605 99.5641 76.0551 98.0269 74.6937C95.5236 72.41 92.2737 70.1262 89.0677 67.9304C81.3382 62.5285 74.0479 57.478 77.21 51.6369C77.2539 51.593 77.2539 51.5052 77.2978 51.4613C78.0444 50.1437 79.7133 48.5188 83.3584 48.3431C93.6791 47.8161 115.858 59.3664 125.124 72.3661C127.891 76.2308 134.347 86.815 143.306 101.527C168.251 142.371 214.628 218.392 246.249 254.624C285.555 299.684 288.059 299.816 318.625 301.836C321.216 302.011 324.027 302.187 327.057 302.407C328.155 302.538 329.034 303.549 328.946 304.734Z" fill="#201000"/>
<path d="M498.731 438.463C497.897 438.463 497.107 437.98 496.755 437.146C496.623 436.795 481.779 399.684 461.972 350.672C443.483 304.91 411.467 304.471 377.607 303.988L372.205 303.9C371.019 303.9 370.097 302.934 370.141 301.748C370.141 300.606 371.107 299.684 372.249 299.684H372.293L377.694 299.771C411.467 300.255 446.338 300.738 465.925 349.091C485.732 398.103 500.576 435.17 500.708 435.565C501.147 436.663 500.62 437.892 499.522 438.288C499.258 438.419 498.995 438.463 498.731 438.463Z" fill="#201000"/>
<path d="M444.932 447.993C444.054 447.993 443.264 447.466 442.956 446.588L428.946 407.677L431.23 445.754C431.318 446.896 430.396 447.906 429.254 447.993C428.112 448.037 427.102 447.159 427.014 446.017L423.852 393.316C423.808 392.262 424.511 391.34 425.521 391.12C426.531 390.901 427.585 391.471 427.936 392.482L446.909 445.183C447.304 446.281 446.733 447.466 445.635 447.862C445.415 447.95 445.196 447.993 444.932 447.993Z" fill="#201000"/>
<path d="M484.239 403.988C477.915 410.356 453.54 424.673 435.666 416.373C436.105 418.042 436.5 419.711 436.895 421.379C440.409 422.565 444.098 423.092 447.787 423.092C463.466 423.092 479.496 413.826 486.039 408.028C485.424 406.711 484.81 405.349 484.239 403.988Z" fill="#201000"/>
<path d="M325.432 295.072L316.298 303.504L338.081 336.575L347.26 314.045L325.432 295.072Z" fill="white"/>
<path d="M338.081 338.682C337.378 338.682 336.719 338.331 336.324 337.716L314.541 304.69C313.97 303.812 314.102 302.67 314.892 301.967L324.027 293.535C324.818 292.789 326.047 292.788 326.838 293.491L348.621 312.464C349.28 313.035 349.543 314.001 349.192 314.835L340.057 337.321C339.75 338.068 339.091 338.551 338.3 338.639C338.256 338.682 338.169 338.682 338.081 338.682ZM319.064 303.856L337.642 332.051L344.712 314.66L325.476 297.927L319.064 303.856Z" fill="#201000"/>
<path d="M347.259 314.045L359.205 335.872L382.394 302.099L372.556 292.964L347.259 314.045Z" fill="white"/>
<path d="M359.205 337.98C359.161 337.98 359.117 337.98 359.117 337.98C358.371 337.936 357.712 337.541 357.361 336.882L345.415 315.099C344.932 314.22 345.151 313.122 345.898 312.464L371.195 291.383C372.029 290.724 373.215 290.724 373.961 291.471L383.799 300.606C384.546 301.309 384.677 302.494 384.106 303.329L360.918 337.058C360.523 337.628 359.864 337.98 359.205 337.98ZM349.939 314.572L359.425 331.831L379.671 302.407L372.512 295.775L349.939 314.572Z" fill="#201000"/>
<path d="M345.151 387.87C345.108 387.87 345.108 387.87 345.108 387.87C343.966 387.826 343.043 386.86 343.043 385.718L345.151 314.001C345.195 312.815 346.249 311.981 347.303 311.937C348.445 311.981 349.368 312.947 349.368 314.089L347.26 385.806C347.216 386.992 346.249 387.87 345.151 387.87Z" fill="#201000"/>
<path d="M97.9826 74.7812L95.5232 81.0614L2.1104 25.813L77.1657 51.7245C74.0475 57.5655 81.3378 62.616 89.0234 68.0179C92.2294 70.2138 95.4793 72.4975 97.9826 74.7812Z" fill="#853EF3"/>
<path d="M140.231 2.09747L2.1104 25.813L119.195 65.251L140.231 2.09747Z" fill="white"/>
<path d="M119.195 67.3591C118.975 67.3591 118.756 67.3152 118.536 67.2274L1.45164 27.7454C0.529371 27.438 -0.0415527 26.5596 0.00236489 25.5934C0.0902002 24.6272 0.792883 23.8367 1.75907 23.661L139.88 0.0333564C140.627 -0.0983965 141.373 0.165112 141.856 0.736041C142.339 1.30697 142.471 2.05357 142.252 2.75626L121.171 65.9098C120.995 66.4368 120.6 66.876 120.117 67.1395C119.81 67.3152 119.502 67.3591 119.195 67.3591ZM10.6743 26.4718L117.833 62.616L137.113 4.82038L10.6743 26.4718Z" fill="#853EF3"/>
<path d="M130.745 31.4784H130.701L2.06649 27.8772C0.924633 27.8333 0.00235748 26.8671 0.00235748 25.7252C0.0462751 24.5833 1.01246 23.7489 2.15432 23.6611L130.789 27.2623C131.931 27.3062 132.853 28.2724 132.853 29.4143C132.809 30.6001 131.887 31.4784 130.745 31.4784Z" fill="#853EF3"/>
<path d="M391.792 398.674L517.703 402.627L519.811 385.762" fill="#853EF3"/>
<path d="M530.835 304.427L391.792 398.674L539.135 383.742L530.835 304.427Z" fill="white"/>
<path d="M391.791 400.782C390.913 400.782 390.123 400.255 389.815 399.377C389.464 398.454 389.815 397.444 390.606 396.917L529.605 302.67C530.22 302.275 531.01 302.187 531.669 302.494C532.328 302.802 532.811 303.461 532.855 304.163L541.155 383.479C541.199 384.049 541.068 384.576 540.672 385.016C540.321 385.455 539.794 385.718 539.267 385.762L391.967 400.694C391.967 400.782 391.879 400.782 391.791 400.782ZM529.078 308.16L399.916 395.732L536.808 381.854L529.078 308.16Z" fill="#853EF3"/>
<path d="M391.791 400.782C390.957 400.782 390.167 400.299 389.859 399.508C389.42 398.454 389.903 397.181 391.001 396.742L533.162 336.926C534.216 336.487 535.49 336.97 535.929 338.068C536.368 339.122 535.885 340.395 534.787 340.835L392.626 400.65C392.362 400.738 392.099 400.782 391.791 400.782Z" fill="#853EF3"/>
<path d="M150.069 40.877C149.806 40.877 149.498 40.833 149.235 40.7013C145.282 39.0324 141.374 37.671 137.597 36.6609C136.455 36.3534 135.796 35.2116 136.103 34.0697C136.411 32.9279 137.553 32.2691 138.695 32.5765C142.691 33.6306 146.819 35.0359 150.948 36.7926C152.002 37.2318 152.529 38.5054 152.046 39.5594C151.65 40.3939 150.86 40.877 150.069 40.877Z" fill="#853EF3"/>
<path d="M351.3 516.9C346.908 516.9 342.56 516.769 338.3 516.505C334.348 516.285 330.307 515.934 326.311 515.495C325.169 515.363 324.334 514.309 324.422 513.167C324.554 512.025 325.564 511.147 326.75 511.279C330.659 511.718 334.655 512.025 338.52 512.289C342.692 512.509 346.952 512.64 351.256 512.64C352.442 512.64 353.364 513.606 353.364 514.748C353.408 515.934 352.486 516.9 351.3 516.9ZM376.069 515.671C375.015 515.671 374.093 514.836 373.961 513.782C373.83 512.64 374.708 511.586 375.85 511.454C383.931 510.664 392.099 509.434 400.18 507.897C401.322 507.678 402.42 508.424 402.64 509.566C402.859 510.708 402.113 511.806 400.971 512.025C392.758 513.606 384.458 514.836 376.245 515.671C376.201 515.671 376.113 515.671 376.069 515.671ZM302.112 511.63C301.98 511.63 301.805 511.63 301.673 511.586C293.548 509.873 285.423 507.809 277.474 505.35C276.376 504.999 275.718 503.813 276.069 502.715C276.42 501.617 277.606 500.958 278.704 501.31C286.521 503.681 294.514 505.745 302.507 507.414C303.649 507.634 304.396 508.775 304.132 509.917C303.957 510.927 303.078 511.63 302.112 511.63ZM424.686 506.228C423.764 506.228 422.93 505.613 422.666 504.691C422.359 503.593 422.973 502.407 424.115 502.056C432.064 499.728 439.882 497.006 447.348 494.019C448.446 493.58 449.675 494.107 450.115 495.161C450.554 496.259 450.027 497.489 448.973 497.928C441.419 501.002 433.47 503.725 425.345 506.097C425.082 506.184 424.906 506.228 424.686 506.228ZM254.769 497.049C254.505 497.049 254.242 497.006 253.978 496.874C245.985 493.536 238.388 489.847 231.449 485.982C230.439 485.411 230.087 484.138 230.658 483.128C231.229 482.118 232.503 481.766 233.513 482.337C240.32 486.158 247.742 489.759 255.603 493.009C256.657 493.448 257.184 494.678 256.745 495.776C256.35 496.566 255.603 497.049 254.769 497.049ZM470.536 487.563C469.79 487.563 469.087 487.168 468.692 486.465C468.121 485.455 468.516 484.182 469.526 483.611C476.992 479.526 483.931 475.135 490.167 470.479C491.09 469.777 492.407 469.952 493.11 470.918C493.813 471.841 493.637 473.158 492.671 473.861C486.259 478.648 479.144 483.172 471.502 487.344C471.239 487.475 470.888 487.563 470.536 487.563ZM211.861 472.456C211.378 472.456 210.939 472.28 210.544 471.973C208.392 470.216 206.372 468.459 204.527 466.658C199.037 467.317 193.196 467.01 187.355 465.736C186.213 465.473 185.511 464.375 185.73 463.233C185.994 462.091 187.092 461.388 188.234 461.608C192.45 462.53 196.622 462.925 200.662 462.75C197.764 459.544 195.348 456.338 193.46 453.132C192.845 452.122 193.196 450.848 194.206 450.233C195.217 449.618 196.49 449.97 197.105 450.98C199.301 454.669 202.287 458.446 205.976 462.179C207.909 461.871 209.797 461.388 211.598 460.817C212.696 460.466 213.882 461.081 214.277 462.179C214.628 463.277 214.013 464.463 212.915 464.858C211.861 465.209 210.807 465.517 209.709 465.78C210.807 466.79 211.993 467.756 213.179 468.767C214.101 469.513 214.233 470.831 213.486 471.753C213.091 472.192 212.476 472.456 211.861 472.456ZM509.799 457.655C509.316 457.655 508.789 457.48 508.393 457.128C507.515 456.338 507.471 455.02 508.262 454.142C514.015 447.774 518.626 441.098 521.964 434.291C522.491 433.237 523.721 432.798 524.775 433.325C525.829 433.852 526.268 435.082 525.741 436.136C522.227 443.294 517.396 450.277 511.38 456.953C510.984 457.436 510.37 457.655 509.799 457.655ZM165.177 455.986C164.782 455.986 164.386 455.855 164.035 455.635C157.228 451.156 150.86 445.49 145.107 438.859C144.36 437.98 144.448 436.663 145.326 435.872C146.205 435.126 147.522 435.213 148.313 436.092C153.802 442.46 159.863 447.818 166.363 452.078C167.329 452.737 167.592 454.01 166.978 455.02C166.538 455.679 165.88 455.986 165.177 455.986ZM232.151 450.804C231.756 450.804 231.317 450.672 230.966 450.409C229.999 449.75 229.78 448.433 230.439 447.467C232.678 444.217 233.864 440.791 233.864 437.321C233.864 433.72 232.59 430.075 230.219 426.825C229.516 425.903 229.736 424.585 230.658 423.883C231.58 423.18 232.898 423.4 233.601 424.322C236.543 428.318 238.08 432.798 238.08 437.321C238.08 441.669 236.675 445.885 233.908 449.838C233.469 450.453 232.81 450.804 232.151 450.804ZM192.098 430.558C191.835 430.558 191.615 430.514 191.352 430.426C190.254 430.031 189.727 428.802 190.122 427.704C193.767 418.042 201.233 412.464 210.632 412.464C211.774 412.464 212.74 413.386 212.74 414.572C212.74 415.714 211.817 416.68 210.632 416.68C202.99 416.68 197.105 421.116 194.075 429.197C193.767 430.031 192.933 430.558 192.098 430.558ZM132.854 419.096C132.107 419.096 131.36 418.7 130.965 417.954C127.188 410.707 124.026 402.802 121.655 394.59C121.347 393.448 121.962 392.306 123.104 391.955C124.246 391.647 125.388 392.262 125.739 393.404C128.023 401.397 131.053 408.995 134.742 415.978C135.269 416.988 134.874 418.305 133.864 418.832C133.556 419.052 133.205 419.096 132.854 419.096ZM118.976 371.84C117.922 371.84 116.999 371.05 116.867 369.952C116.253 364.199 115.945 358.27 115.945 352.341C115.945 349.881 115.989 347.378 116.121 344.919C116.165 343.733 117.263 342.855 118.317 342.899C119.459 342.942 120.381 343.909 120.337 345.094C120.249 347.51 120.161 349.969 120.161 352.341C120.161 358.138 120.469 363.935 121.084 369.513C121.215 370.655 120.381 371.709 119.195 371.84C119.107 371.84 119.063 371.84 118.976 371.84ZM120.864 322.477C120.732 322.477 120.644 322.477 120.513 322.433C119.371 322.213 118.58 321.159 118.8 319.974L119.151 317.909C120.557 310.18 121.742 302.67 122.709 295.599C122.884 294.457 123.938 293.667 125.08 293.799C126.222 293.974 127.056 295.028 126.881 296.17C125.915 303.285 124.729 310.883 123.279 318.656L122.928 320.72C122.796 321.73 121.874 322.477 120.864 322.477ZM127.232 273.333C127.188 273.333 127.144 273.333 127.1 273.333C125.958 273.245 125.036 272.279 125.124 271.093C125.388 266.394 125.519 261.871 125.519 257.611C125.519 253.79 125.431 250.101 125.212 246.587C125.124 245.445 126.046 244.435 127.188 244.347C128.33 244.347 129.34 245.182 129.428 246.324C129.648 249.925 129.779 253.746 129.779 257.611C129.779 261.958 129.648 266.57 129.384 271.357C129.296 272.455 128.33 273.333 127.232 273.333ZM102.814 231.172C102.77 231.172 102.726 231.172 102.682 231.172C93.5033 230.689 85.6421 228.23 79.8889 224.057C79.3618 223.662 78.8348 223.267 78.3517 222.872C77.4295 222.125 77.2977 220.808 78.0443 219.885C78.7909 218.963 80.1084 218.831 81.0307 219.578C81.4699 219.929 81.9091 220.281 82.3922 220.632C87.4427 224.321 94.5573 226.517 102.902 226.956C104.044 227 104.966 228.01 104.878 229.196C104.878 230.294 103.956 231.172 102.814 231.172ZM127.364 228.361C126.442 228.361 125.563 227.747 125.344 226.78C125.036 225.638 125.739 224.497 126.837 224.189C134.478 222.169 142.076 219.183 149.41 215.318C150.465 214.791 151.694 215.186 152.265 216.196C152.792 217.206 152.397 218.48 151.387 219.051C143.789 223.091 135.884 226.165 127.891 228.274C127.715 228.361 127.539 228.361 127.364 228.361ZM123.411 224.145C122.489 224.145 121.655 223.53 121.391 222.608C118.932 214.044 115.33 206.93 110.675 201.484C109.929 200.605 110.016 199.244 110.895 198.497C111.773 197.751 113.091 197.839 113.881 198.717C118.932 204.646 122.84 212.287 125.431 221.422C125.739 222.564 125.08 223.706 123.982 224.014C123.806 224.101 123.631 224.145 123.411 224.145ZM170.842 205.392C170.227 205.392 169.657 205.129 169.261 204.646C168.515 203.767 168.603 202.45 169.481 201.659C175.717 196.301 181.251 190.329 185.906 183.829C186.565 182.863 187.882 182.687 188.849 183.346C189.815 184.005 189.99 185.322 189.332 186.288C184.501 193.052 178.747 199.288 172.248 204.821C171.808 205.261 171.325 205.392 170.842 205.392ZM72.0715 201.528C71.8519 201.528 71.5884 201.484 71.3249 201.396C70.227 201.001 69.656 199.771 70.0513 198.673C73.2573 189.889 82.2165 184.224 91.8784 185.234C93.0202 185.366 93.8547 186.376 93.7668 187.562C93.6351 188.704 92.625 189.538 91.4392 189.45C83.8854 188.66 76.5511 193.271 74.0478 200.166C73.7404 201.001 72.9059 201.528 72.0715 201.528ZM199.389 165.515C199.125 165.515 198.862 165.471 198.642 165.383C197.544 164.944 197.017 163.759 197.412 162.661C199.696 156.688 201.409 150.408 202.463 143.996C202.726 142.371 202.946 140.746 203.166 139.165C203.297 138.023 204.351 137.188 205.537 137.32C206.679 137.452 207.514 138.506 207.382 139.692C207.162 141.317 206.943 142.985 206.635 144.698C205.537 151.374 203.781 157.961 201.365 164.198C201.014 164.988 200.223 165.515 199.389 165.515ZM205.889 116.767C204.791 116.767 203.868 115.932 203.781 114.834C203.078 106.578 201.321 98.6286 198.598 91.2505C198.203 90.1525 198.774 88.9668 199.828 88.5276C200.926 88.1323 202.112 88.7032 202.551 89.7573C205.405 97.4868 207.206 105.787 207.997 114.439C208.084 115.581 207.25 116.635 206.064 116.723C206.02 116.767 205.932 116.767 205.889 116.767ZM188.761 70.9605C188.102 70.9605 187.487 70.6531 187.092 70.1261C182.349 63.758 176.639 58.0048 170.096 52.9543C169.173 52.2516 168.998 50.9341 169.7 50.0118C170.403 49.0895 171.721 48.9139 172.643 49.6165C179.45 54.8867 185.467 60.9034 190.43 67.5789C191.132 68.5011 190.957 69.8187 189.99 70.5213C189.639 70.8288 189.2 70.9605 188.761 70.9605Z" fill="#853EF3"/>
<path d="M530.616 413.167C530.572 413.167 530.484 413.167 530.44 413.167C529.298 413.079 528.42 412.069 528.508 410.883C528.815 406.843 528.727 402.758 528.244 398.674C528.112 397.532 528.947 396.478 530.089 396.346C531.274 396.171 532.285 397.049 532.416 398.191C532.943 402.539 533.031 406.931 532.68 411.234C532.636 412.332 531.714 413.167 530.616 413.167Z" fill="#853EF3"/>
</svg>