<svg width="21" height="14" viewBox="0 0 21 14" fill="none" xmlns="http://www.w3.org/2000/svg">
<path fill-rule="evenodd" clip-rule="evenodd" d="M15.1039 7C16.5184 7 17.6562 5.88 17.6562 4.5C17.6562 3.12 16.5184 2 15.1039 2C13.6894 2 12.5414 3.12 12.5414 4.5C12.5414 5.88 13.6894 7 15.1039 7ZM7.4163 6C9.11783 6 10.4811 4.66 10.4811 3C10.4811 1.34 9.11783 0 7.4163 0C5.71478 0 4.34127 1.34 4.34127 3C4.34127 4.66 5.71478 6 7.4163 6ZM15.1039 9C13.2281 9 9.46633 9.92 9.46633 11.75V13C9.46633 13.55 9.92759 14 10.4913 14H19.7165C20.2802 14 20.7415 13.55 20.7415 13V11.75C20.7415 9.92 16.9797 9 15.1039 9ZM7.41631 8C5.02803 8 0.241219 9.17 0.241219 11.5V13C0.241219 13.55 0.702474 14 1.26623 14H7.41631V11.75C7.41631 10.9 7.75456 9.41 9.84558 8.28C8.95382 8.1 8.09281 8 7.41631 8Z" fill="#18214D"/>
</svg>
